<?xml version="1.0" encoding="UTF-8"?>
<svg xmlns="http://www.w3.org/2000/svg" xmlns:xlink="http://www.w3.org/1999/xlink" width="485pt" height="375pt" viewBox="0 0 485 375" version="1.1">
<defs>
<linearGradient id="linear0" gradientUnits="userSpaceOnUse" x1="176.2366" y1="431.2925" x2="210.0838" y2="431.2925" gradientTransform="matrix(20.738281,0,0,27.21875,107.910156,250.667969)">
<stop offset="0" style="stop-color:rgb(19.607843%,24.313725%,98.431373%);stop-opacity:1;"/>
<stop offset="1" style="stop-color:rgb(36.470588%,40.392157%,100%);stop-opacity:1;"/>
</linearGradient>
<linearGradient id="linear1" gradientUnits="userSpaceOnUse" x1="211.1939" y1="431.2929" x2="249.4822" y2="431.2929" gradientTransform="matrix(23.265625,0,0,26.226562,129.410156,251.15625)">
<stop offset="0" style="stop-color:rgb(19.607843%,24.313725%,98.431373%);stop-opacity:1;"/>
<stop offset="1" style="stop-color:rgb(36.470588%,40.392157%,100%);stop-opacity:1;"/>
</linearGradient>
<linearGradient id="linear2" gradientUnits="userSpaceOnUse" x1="252.1608" y1="431.2929" x2="286.7706" y2="431.2929" gradientTransform="matrix(21.128906,0,0,26.21875,154.414062,251.164062)">
<stop offset="0" style="stop-color:rgb(19.607843%,24.313725%,98.431373%);stop-opacity:1;"/>
<stop offset="1" style="stop-color:rgb(36.470588%,40.392157%,100%);stop-opacity:1;"/>
</linearGradient>
<linearGradient id="linear3" gradientUnits="userSpaceOnUse" x1="288.8963" y1="431.2929" x2="316.7476" y2="431.2929" gradientTransform="matrix(17.0625,0,0,26.21875,176.914062,251.164062)">
<stop offset="0" style="stop-color:rgb(19.607843%,24.313725%,98.431373%);stop-opacity:1;"/>
<stop offset="1" style="stop-color:rgb(36.470588%,40.392157%,100%);stop-opacity:1;"/>
</linearGradient>
<linearGradient id="linear4" gradientUnits="userSpaceOnUse" x1="320.5079" y1="431.2929" x2="348.3591" y2="431.2929" gradientTransform="matrix(17.066406,0,0,26.21875,196.269531,251.164062)">
<stop offset="0" style="stop-color:rgb(19.607843%,24.313725%,98.431373%);stop-opacity:1;"/>
<stop offset="1" style="stop-color:rgb(36.470588%,40.392157%,100%);stop-opacity:1;"/>
</linearGradient>
<linearGradient id="linear5" gradientUnits="userSpaceOnUse" x1="352.1194" y1="431.2929" x2="386.7292" y2="431.2929" gradientTransform="matrix(21.128906,0,0,26.21875,215.628906,251.164062)">
<stop offset="0" style="stop-color:rgb(19.607843%,24.313725%,98.431373%);stop-opacity:1;"/>
<stop offset="1" style="stop-color:rgb(36.470588%,40.392157%,100%);stop-opacity:1;"/>
</linearGradient>
<linearGradient id="linear6" gradientUnits="userSpaceOnUse" x1="402.5353" y1="431.2929" x2="413.9809" y2="431.2929" gradientTransform="matrix(7.011719,0,0,26.226562,246.503906,251.15625)">
<stop offset="0" style="stop-color:rgb(19.607843%,24.313725%,98.431373%);stop-opacity:1;"/>
<stop offset="1" style="stop-color:rgb(36.470588%,40.392157%,100%);stop-opacity:1;"/>
</linearGradient>
<linearGradient id="linear7" gradientUnits="userSpaceOnUse" x1="419.4508" y1="431.3201" x2="453.2782" y2="431.3201" gradientTransform="matrix(20.695312,0,0,26.257812,256.882813,251.164062)">
<stop offset="0" style="stop-color:rgb(19.607843%,24.313725%,98.431373%);stop-opacity:1;"/>
<stop offset="1" style="stop-color:rgb(36.470588%,40.392157%,100%);stop-opacity:1;"/>
</linearGradient>
<linearGradient id="linear8" gradientUnits="userSpaceOnUse" x1="458.1835" y1="431.2925" x2="489.8498" y2="431.2925" gradientTransform="matrix(19.398438,0,0,27.21875,280.566406,250.65625)">
<stop offset="0" style="stop-color:rgb(19.607843%,24.313725%,98.431373%);stop-opacity:1;"/>
<stop offset="1" style="stop-color:rgb(36.470588%,40.392157%,100%);stop-opacity:1;"/>
</linearGradient>
<linearGradient id="linear9" gradientUnits="userSpaceOnUse" x1="622.347" y1="431.2925" x2="654.0134" y2="431.2925" gradientTransform="matrix(19.398438,0,0,27.21875,381.09375,250.65625)">
<stop offset="0" style="stop-color:rgb(19.607843%,24.313725%,98.431373%);stop-opacity:1;"/>
<stop offset="1" style="stop-color:rgb(36.470588%,40.392157%,100%);stop-opacity:1;"/>
</linearGradient>
<linearGradient id="linear10" gradientUnits="userSpaceOnUse" x1="494.7551" y1="431.2929" x2="506.2016" y2="431.2929" gradientTransform="matrix(7.011719,0,0,26.226562,302.972656,251.15625)">
<stop offset="0" style="stop-color:rgb(19.607843%,24.313725%,98.431373%);stop-opacity:1;"/>
<stop offset="1" style="stop-color:rgb(36.470588%,40.392157%,100%);stop-opacity:1;"/>
</linearGradient>
<linearGradient id="linear11" gradientUnits="userSpaceOnUse" x1="511.1068" y1="431.2925" x2="544.9536" y2="431.2925" gradientTransform="matrix(20.734375,0,0,27.21875,312.984375,250.667969)">
<stop offset="0" style="stop-color:rgb(19.607843%,24.313725%,98.431373%);stop-opacity:1;"/>
<stop offset="1" style="stop-color:rgb(36.470588%,40.392157%,100%);stop-opacity:1;"/>
</linearGradient>
<linearGradient id="linear12" gradientUnits="userSpaceOnUse" x1="549.8579" y1="431.2929" x2="584.1956" y2="431.2929" gradientTransform="matrix(21.027344,0,0,26.230469,336.714844,251.15625)">
<stop offset="0" style="stop-color:rgb(19.607843%,24.313725%,98.431373%);stop-opacity:1;"/>
<stop offset="1" style="stop-color:rgb(36.470588%,40.392157%,100%);stop-opacity:1;"/>
</linearGradient>
<linearGradient id="linear13" gradientUnits="userSpaceOnUse" x1="588.0103" y1="431.2929" x2="618.5324" y2="431.2929" gradientTransform="matrix(18.699219,0,0,26.21875,360.082031,251.164062)">
<stop offset="0" style="stop-color:rgb(19.607843%,24.313725%,98.431373%);stop-opacity:1;"/>
<stop offset="1" style="stop-color:rgb(36.470588%,40.392157%,100%);stop-opacity:1;"/>
</linearGradient>
</defs>
<g id="surface1">
<path style=" stroke:none;fill-rule:nonzero;fill:rgb(36.470588%,40.392157%,100%);fill-opacity:1;" d="M 216.1875 234.75 L 216.1875 193.179688 L 189.289062 193.179688 C 189.289062 193.179688 183.078125 193.277344 183.050781 199.804688 C 183.027344 206.328125 183.050781 228.613281 183.050781 228.613281 C 183.050781 228.613281 182.714844 234.023438 189.023438 234.742188 L 216.1875 234.742188 Z M 216.1875 234.75 "/>
<path style=" stroke:none;fill-rule:nonzero;fill:rgb(25.098039%,29.411765%,88.627451%);fill-opacity:1;" d="M 256.167969 234.75 L 216.164062 234.75 L 216.164062 180.644531 C 216.164062 176.929688 219.171875 173.921875 222.882812 173.921875 L 256.167969 173.921875 Z M 256.167969 234.75 "/>
<path style=" stroke:none;fill-rule:nonzero;fill:rgb(19.607843%,24.313725%,98.431373%);fill-opacity:1;" d="M 299.394531 234.75 L 256.167969 234.75 L 256.167969 162.898438 C 256.167969 158.289062 259.898438 154.5625 264.5 154.5625 L 299.554688 154.5625 C 303.242188 154.5625 306.230469 157.546875 306.230469 161.234375 L 306.230469 227.914062 C 306.234375 231.6875 303.171875 234.75 299.394531 234.75 Z M 299.394531 234.75 "/>
<path style=" stroke:none;fill-rule:nonzero;fill:rgb(19.607843%,24.313725%,98.431373%);fill-opacity:1;" d="M 320.164062 133.023438 L 285.148438 133.023438 L 280.9375 97.445312 L 320.160156 97.445312 C 323.046875 97.445312 325.390625 99.703125 325.390625 102.476562 L 325.390625 127.984375 C 325.390625 130.765625 323.050781 133.023438 320.164062 133.023438 Z M 320.164062 133.023438 "/>
<path style=" stroke:none;fill-rule:nonzero;fill:rgb(61.960784%,66.27451%,72.941176%);fill-opacity:1;" d="M 285.976562 154.5625 L 276.425781 154.5625 L 276.425781 102.132812 C 276.425781 99.539062 278.523438 97.445312 281.109375 97.445312 L 281.292969 97.445312 C 283.882812 97.445312 285.976562 99.546875 285.976562 102.132812 Z M 285.976562 154.5625 "/>
<path style=" stroke:none;fill-rule:nonzero;fill:url(#linear0);" d="M 128.648438 268.363281 C 128.648438 270.191406 128.390625 271.714844 127.882812 272.9375 C 127.367188 274.164062 126.648438 275.148438 125.726562 275.882812 C 124.800781 276.617188 123.707031 277.132812 122.4375 277.429688 C 121.171875 277.734375 119.796875 277.886719 118.300781 277.886719 C 116.761719 277.886719 115.359375 277.734375 114.09375 277.421875 C 112.820312 277.109375 111.726562 276.578125 110.800781 275.816406 C 109.878906 275.054688 109.171875 274.046875 108.667969 272.792969 C 108.164062 271.539062 107.910156 269.960938 107.910156 268.070312 L 107.910156 260.523438 C 107.910156 258.628906 108.164062 257.046875 108.667969 255.777344 C 109.171875 254.511719 109.878906 253.5 110.800781 252.738281 C 111.726562 251.976562 112.820312 251.445312 114.09375 251.132812 C 115.359375 250.820312 116.761719 250.667969 118.300781 250.667969 C 119.835938 250.667969 121.234375 250.824219 122.503906 251.152344 C 123.773438 251.476562 124.863281 252.011719 125.777344 252.757812 C 126.6875 253.507812 127.390625 254.488281 127.894531 255.699219 C 128.398438 256.914062 128.648438 258.398438 128.648438 260.160156 L 128.648438 260.460938 C 128.625 260.90625 128.402344 261.128906 127.976562 261.128906 L 122.542969 261.128906 C 122.074219 261.128906 121.84375 260.894531 121.84375 260.425781 L 121.84375 259.921875 C 121.84375 258.804688 121.582031 257.925781 121.058594 257.265625 C 120.542969 256.609375 119.617188 256.28125 118.304688 256.28125 C 116.992188 256.28125 116.0625 256.601562 115.515625 257.230469 C 114.976562 257.867188 114.695312 258.871094 114.695312 260.25 L 114.695312 268.300781 C 114.695312 269.683594 114.964844 270.695312 115.515625 271.324219 C 116.0625 271.960938 116.992188 272.273438 118.304688 272.273438 C 119.613281 272.273438 120.53125 271.953125 121.058594 271.324219 C 121.582031 270.6875 121.84375 269.683594 121.84375 268.300781 L 121.84375 267.769531 C 121.84375 267.304688 122.074219 267.070312 122.542969 267.070312 L 127.976562 267.070312 C 128.429688 267.070312 128.648438 267.304688 128.648438 267.769531 Z M 128.648438 268.363281 "/>
<path style=" stroke:none;fill-rule:nonzero;fill:url(#linear1);" d="M 136.527344 276.84375 C 136.390625 277.203125 136.117188 277.378906 135.699219 277.378906 L 129.957031 277.378906 C 129.6875 277.378906 129.507812 277.304688 129.410156 277.15625 C 129.304688 277.011719 129.304688 276.820312 129.421875 276.578125 L 137.300781 251.6875 C 137.4375 251.335938 137.699219 251.15625 138.101562 251.15625 L 142.808594 251.15625 C 143.320312 251.15625 143.511719 251.425781 143.375 251.960938 Z M 146.207031 277.382812 C 145.78125 277.382812 145.523438 277.207031 145.4375 276.851562 L 144.605469 273.609375 L 139.265625 273.609375 C 139 273.609375 138.808594 273.535156 138.695312 273.390625 C 138.585938 273.242188 138.574219 273.050781 138.667969 272.808594 L 139.902344 268.296875 C 140.039062 267.875 140.292969 267.660156 140.667969 267.660156 L 143.070312 267.660156 L 141.734375 262.480469 C 141.640625 262.210938 141.65625 261.90625 141.761719 261.542969 L 144.164062 252.828125 C 144.253906 252.515625 144.398438 252.359375 144.601562 252.359375 C 144.800781 252.359375 144.957031 252.515625 145.0625 252.828125 L 152.675781 276.605469 C 152.894531 277.117188 152.734375 277.375 152.171875 277.375 L 146.207031 277.375 Z M 146.207031 277.382812 "/>
<path style=" stroke:none;fill-rule:nonzero;fill:url(#linear2);" d="M 167.734375 260.511719 C 167.734375 259.3125 167.347656 258.453125 166.582031 257.929688 C 165.820312 257.40625 164.652344 257.144531 163.09375 257.144531 L 155.113281 257.144531 C 154.648438 257.144531 154.414062 256.921875 154.414062 256.476562 L 154.414062 251.832031 C 154.414062 251.386719 154.648438 251.164062 155.113281 251.164062 L 163.09375 251.164062 C 166.632812 251.164062 169.375 251.929688 171.335938 253.46875 C 173.296875 255.003906 174.277344 257.148438 174.277344 259.914062 L 174.277344 260.582031 C 174.277344 262.070312 174 263.414062 173.457031 264.589844 C 172.910156 265.773438 172.101562 266.773438 171.035156 267.597656 L 175.542969 276.617188 C 175.722656 277.132812 175.542969 277.382812 175.007812 277.382812 L 168.796875 277.382812 C 168.378906 277.382812 168.121094 277.207031 168.039062 276.851562 L 165.0625 269.804688 C 164.421875 269.875 163.757812 269.902344 163.09375 269.902344 C 162.914062 269.902344 162.734375 269.902344 162.542969 269.902344 C 162.351562 269.902344 162.15625 269.886719 161.960938 269.875 L 161.960938 276.714844 C 161.960938 277.164062 161.726562 277.382812 161.265625 277.382812 L 155.785156 277.382812 C 155.34375 277.382812 155.121094 277.164062 155.121094 276.714844 L 155.121094 258.648438 C 155.121094 258.199219 155.34375 257.976562 155.785156 257.976562 L 161.265625 257.976562 C 161.726562 257.976562 161.960938 258.199219 161.960938 258.648438 L 161.960938 263.890625 C 162.164062 263.914062 162.351562 263.921875 162.542969 263.921875 C 162.734375 263.921875 162.914062 263.921875 163.09375 263.921875 C 164.648438 263.921875 165.8125 263.652344 166.582031 263.121094 C 167.347656 262.585938 167.734375 261.714844 167.734375 260.511719 Z M 167.734375 260.511719 "/>
<path style=" stroke:none;fill-rule:nonzero;fill:url(#linear3);" d="M 177.613281 256.972656 C 177.148438 256.972656 176.914062 256.753906 176.914062 256.304688 L 176.914062 251.832031 C 176.914062 251.386719 177.148438 251.164062 177.613281 251.164062 L 193.101562 251.164062 C 193.546875 251.164062 193.769531 251.386719 193.769531 251.832031 L 193.769531 256.273438 C 193.769531 256.738281 193.546875 256.976562 193.101562 256.976562 L 177.613281 256.976562 Z M 178.316406 277.382812 C 177.851562 277.382812 177.617188 277.164062 177.617188 276.714844 L 177.617188 258.648438 C 177.617188 258.199219 177.84375 257.976562 178.285156 257.976562 L 183.925781 257.976562 C 184.390625 257.976562 184.625 258.199219 184.625 258.648438 L 184.625 261.519531 L 191.832031 261.519531 C 192.257812 261.519531 192.46875 261.738281 192.46875 262.1875 L 192.46875 266.097656 C 192.46875 266.5625 192.257812 266.796875 191.832031 266.796875 L 184.625 266.796875 L 184.625 271.566406 L 193.339844 271.566406 C 193.757812 271.566406 193.976562 271.789062 193.976562 272.234375 L 193.976562 276.679688 C 193.976562 277.144531 193.757812 277.382812 193.339844 277.382812 Z M 178.316406 277.382812 "/>
<path style=" stroke:none;fill-rule:nonzero;fill:url(#linear4);" d="M 196.96875 256.972656 C 196.503906 256.972656 196.269531 256.753906 196.269531 256.304688 L 196.269531 251.832031 C 196.269531 251.386719 196.503906 251.164062 196.96875 251.164062 L 212.457031 251.164062 C 212.90625 251.164062 213.125 251.386719 213.125 251.832031 L 213.125 256.273438 C 213.125 256.738281 212.90625 256.976562 212.457031 256.976562 L 196.96875 256.976562 Z M 197.675781 277.382812 C 197.207031 277.382812 196.976562 277.164062 196.976562 276.714844 L 196.976562 258.648438 C 196.976562 258.199219 197.195312 257.976562 197.640625 257.976562 L 203.28125 257.976562 C 203.75 257.976562 203.980469 258.199219 203.980469 258.648438 L 203.980469 261.519531 L 211.191406 261.519531 C 211.609375 261.519531 211.828125 261.738281 211.828125 262.1875 L 211.828125 266.097656 C 211.828125 266.5625 211.609375 266.796875 211.191406 266.796875 L 203.980469 266.796875 L 203.980469 271.566406 L 212.695312 271.566406 C 213.121094 271.566406 213.335938 271.789062 213.335938 272.234375 L 213.335938 276.679688 C 213.335938 277.144531 213.121094 277.382812 212.695312 277.382812 Z M 197.675781 277.382812 "/>
<path style=" stroke:none;fill-rule:nonzero;fill:url(#linear5);" d="M 228.949219 260.511719 C 228.949219 259.3125 228.5625 258.453125 227.796875 257.929688 C 227.03125 257.40625 225.867188 257.144531 224.304688 257.144531 L 216.328125 257.144531 C 215.859375 257.144531 215.628906 256.921875 215.628906 256.476562 L 215.628906 251.832031 C 215.628906 251.386719 215.859375 251.164062 216.328125 251.164062 L 224.304688 251.164062 C 227.847656 251.164062 230.589844 251.929688 232.546875 253.46875 C 234.507812 255.003906 235.488281 257.148438 235.488281 259.914062 L 235.488281 260.582031 C 235.488281 262.070312 235.214844 263.414062 234.667969 264.589844 C 234.121094 265.773438 233.316406 266.773438 232.25 267.597656 L 236.757812 276.617188 C 236.933594 277.132812 236.757812 277.382812 236.226562 277.382812 L 230.015625 277.382812 C 229.589844 277.382812 229.335938 277.207031 229.25 276.851562 L 226.28125 269.804688 C 225.632812 269.875 224.976562 269.902344 224.304688 269.902344 C 224.132812 269.902344 223.945312 269.902344 223.753906 269.902344 C 223.5625 269.902344 223.367188 269.886719 223.171875 269.875 L 223.171875 276.714844 C 223.171875 277.164062 222.9375 277.382812 222.476562 277.382812 L 217 277.382812 C 216.554688 277.382812 216.332031 277.164062 216.332031 276.714844 L 216.332031 258.648438 C 216.332031 258.199219 216.554688 257.976562 217 257.976562 L 222.476562 257.976562 C 222.9375 257.976562 223.171875 258.199219 223.171875 258.648438 L 223.171875 263.890625 C 223.375 263.914062 223.5625 263.921875 223.753906 263.921875 C 223.945312 263.921875 224.132812 263.921875 224.304688 263.921875 C 225.859375 263.921875 227.027344 263.652344 227.796875 263.121094 C 228.5625 262.585938 228.949219 261.714844 228.949219 260.511719 Z M 228.949219 260.511719 "/>
<path style=" stroke:none;fill-rule:nonzero;fill:url(#linear6);" d="M 252.84375 277.382812 L 247.171875 277.382812 C 246.722656 277.382812 246.503906 277.148438 246.503906 276.679688 L 246.503906 251.796875 C 246.503906 251.371094 246.722656 251.15625 247.171875 251.15625 L 252.8125 251.15625 C 253.277344 251.15625 253.515625 251.371094 253.515625 251.796875 L 253.515625 276.679688 C 253.511719 277.144531 253.289062 277.382812 252.84375 277.382812 Z M 252.84375 277.382812 "/>
<path style=" stroke:none;fill-rule:nonzero;fill:url(#linear7);" d="M 256.949219 251.96875 C 256.835938 251.722656 256.832031 251.523438 256.929688 251.386719 C 257.027344 251.234375 257.207031 251.171875 257.480469 251.171875 L 263.484375 251.171875 C 263.882812 251.171875 264.164062 251.347656 264.320312 251.703125 L 270.894531 265.195312 L 270.894531 251.800781 C 270.894531 251.375 271.117188 251.164062 271.5625 251.164062 L 276.871094 251.164062 C 277.339844 251.164062 277.578125 251.375 277.578125 251.800781 L 277.578125 276.917969 C 277.578125 277 277.554688 277.070312 277.507812 277.117188 C 277.421875 277.324219 277.230469 277.421875 276.9375 277.421875 L 271.265625 277.421875 C 270.863281 277.421875 270.582031 277.242188 270.429688 276.890625 Z M 256.882812 255.742188 C 256.882812 255.5 257.007812 255.351562 257.25 255.308594 C 257.496094 255.265625 257.675781 255.359375 257.78125 255.605469 L 263.261719 265.722656 C 263.367188 265.941406 263.445312 266.152344 263.492188 266.34375 C 263.535156 266.53125 263.558594 266.738281 263.558594 266.960938 L 263.558594 276.75 C 263.558594 277.167969 263.339844 277.382812 262.890625 277.382812 L 257.582031 277.382812 C 257.117188 277.382812 256.882812 277.167969 256.882812 276.75 Z M 256.882812 255.742188 "/>
<path style=" stroke:none;fill-rule:nonzero;fill:url(#linear8);" d="M 288.789062 266.726562 C 287.699219 266.328125 286.675781 265.914062 285.722656 265.488281 C 284.765625 265.070312 283.9375 264.570312 283.238281 264 C 282.539062 263.433594 281.976562 262.75 281.566406 261.949219 C 281.15625 261.148438 280.953125 260.160156 280.953125 258.976562 C 280.953125 257.503906 281.179688 256.25 281.648438 255.199219 C 282.113281 254.15625 282.765625 253.296875 283.585938 252.625 C 284.40625 251.960938 285.390625 251.464844 286.539062 251.136719 C 287.679688 250.816406 288.941406 250.65625 290.328125 250.65625 C 291.683594 250.65625 292.933594 250.820312 294.082031 251.15625 C 295.226562 251.488281 296.210938 251.976562 297.03125 252.625 C 297.851562 253.273438 298.5 254.0625 298.964844 254.980469 C 299.433594 255.90625 299.664062 256.953125 299.664062 258.140625 L 299.664062 258.273438 C 299.640625 258.71875 299.417969 258.941406 299 258.941406 L 293.558594 258.941406 C 293.109375 258.941406 292.890625 258.707031 292.890625 258.238281 L 292.890625 258.070312 C 292.890625 257.554688 292.6875 257.132812 292.273438 256.78125 C 291.867188 256.441406 291.253906 256.265625 290.453125 256.265625 C 288.851562 256.265625 288.054688 257.050781 288.054688 258.632812 C 288.054688 259.34375 288.394531 259.902344 289.058594 260.308594 C 289.726562 260.703125 290.789062 261.164062 292.261719 261.675781 C 293.484375 262.09375 294.574219 262.542969 295.53125 263.007812 C 296.488281 263.476562 297.296875 264.007812 297.949219 264.59375 C 298.601562 265.1875 299.105469 265.867188 299.453125 266.648438 C 299.796875 267.425781 299.964844 268.339844 299.964844 269.390625 C 299.964844 270.859375 299.710938 272.117188 299.214844 273.179688 C 298.710938 274.238281 298.03125 275.117188 297.15625 275.820312 C 296.289062 276.519531 295.265625 277.039062 294.070312 277.375 C 292.886719 277.699219 291.601562 277.875 290.214844 277.875 C 288.859375 277.875 287.59375 277.710938 286.425781 277.375 C 285.253906 277.035156 284.238281 276.546875 283.367188 275.898438 C 282.5 275.257812 281.820312 274.472656 281.320312 273.550781 C 280.816406 272.621094 280.566406 271.578125 280.566406 270.390625 L 280.566406 270.257812 C 280.589844 269.808594 280.8125 269.589844 281.230469 269.589844 L 286.671875 269.589844 C 287.117188 269.589844 287.339844 269.824219 287.339844 270.292969 L 287.339844 270.5 C 287.339844 271.054688 287.578125 271.488281 288.054688 271.800781 C 288.53125 272.113281 289.238281 272.265625 290.171875 272.265625 C 291.128906 272.265625 291.816406 272.050781 292.226562 271.617188 C 292.636719 271.179688 292.84375 270.578125 292.84375 269.800781 C 292.84375 269.332031 292.710938 268.9375 292.445312 268.613281 C 292.179688 268.289062 291.84375 268.011719 291.441406 267.78125 C 291.046875 267.546875 290.601562 267.351562 290.121094 267.203125 C 289.664062 267.039062 289.214844 266.878906 288.789062 266.726562 Z M 288.789062 266.726562 "/>
<path style=" stroke:none;fill-rule:nonzero;fill:url(#linear9);" d="M 389.316406 266.726562 C 388.226562 266.328125 387.203125 265.914062 386.25 265.488281 C 385.292969 265.070312 384.460938 264.570312 383.765625 264 C 383.066406 263.433594 382.503906 262.75 382.09375 261.949219 C 381.683594 261.148438 381.480469 260.160156 381.480469 258.976562 C 381.480469 257.503906 381.710938 256.25 382.179688 255.199219 C 382.640625 254.15625 383.289062 253.296875 384.109375 252.625 C 384.929688 251.960938 385.917969 251.464844 387.066406 251.136719 C 388.207031 250.816406 389.46875 250.65625 390.855469 250.65625 C 392.210938 250.65625 393.460938 250.820312 394.609375 251.15625 C 395.75 251.488281 396.738281 251.976562 397.558594 252.625 C 398.378906 253.273438 399.027344 254.0625 399.492188 254.980469 C 399.960938 255.90625 400.191406 256.953125 400.191406 258.140625 L 400.191406 258.273438 C 400.164062 258.71875 399.945312 258.941406 399.527344 258.941406 L 394.085938 258.941406 C 393.636719 258.941406 393.417969 258.707031 393.417969 258.238281 L 393.417969 258.070312 C 393.417969 257.554688 393.210938 257.132812 392.804688 256.78125 C 392.390625 256.441406 391.78125 256.265625 390.980469 256.265625 C 389.378906 256.265625 388.585938 257.050781 388.585938 258.632812 C 388.585938 259.34375 388.921875 259.902344 389.585938 260.308594 C 390.253906 260.703125 391.320312 261.164062 392.789062 261.675781 C 394.015625 262.09375 395.101562 262.542969 396.058594 263.007812 C 397.011719 263.476562 397.820312 264.007812 398.476562 264.59375 C 399.132812 265.1875 399.632812 265.867188 399.980469 266.648438 C 400.320312 267.425781 400.492188 268.339844 400.492188 269.390625 C 400.492188 270.859375 400.238281 272.117188 399.742188 273.179688 C 399.238281 274.238281 398.558594 275.117188 397.6875 275.820312 C 396.816406 276.519531 395.789062 277.039062 394.601562 277.375 C 393.414062 277.699219 392.128906 277.875 390.742188 277.875 C 389.382812 277.875 388.121094 277.710938 386.953125 277.375 C 385.78125 277.035156 384.765625 276.546875 383.898438 275.898438 C 383.027344 275.257812 382.347656 274.472656 381.84375 273.550781 C 381.34375 272.621094 381.09375 271.578125 381.09375 270.390625 L 381.09375 270.257812 C 381.117188 269.808594 381.335938 269.589844 381.757812 269.589844 L 387.195312 269.589844 C 387.648438 269.589844 387.867188 269.824219 387.867188 270.292969 L 387.867188 270.5 C 387.867188 271.054688 388.105469 271.488281 388.585938 271.800781 C 389.058594 272.113281 389.765625 272.265625 390.699219 272.265625 C 391.65625 272.265625 392.34375 272.050781 392.753906 271.617188 C 393.164062 271.179688 393.367188 270.578125 393.367188 269.800781 C 393.367188 269.332031 393.238281 268.9375 392.972656 268.613281 C 392.703125 268.289062 392.375 268.011719 391.96875 267.78125 C 391.570312 267.546875 391.128906 267.351562 390.648438 267.203125 C 390.191406 267.039062 389.746094 266.878906 389.316406 266.726562 Z M 389.316406 266.726562 "/>
<path style=" stroke:none;fill-rule:nonzero;fill:url(#linear10);" d="M 309.316406 277.382812 L 303.636719 277.382812 C 303.195312 277.382812 302.972656 277.148438 302.972656 276.679688 L 302.972656 251.796875 C 302.972656 251.371094 303.195312 251.15625 303.636719 251.15625 L 309.277344 251.15625 C 309.746094 251.15625 309.984375 251.371094 309.984375 251.796875 L 309.984375 276.679688 C 309.984375 277.144531 309.761719 277.382812 309.316406 277.382812 Z M 309.316406 277.382812 "/>
<path style=" stroke:none;fill-rule:nonzero;fill:url(#linear11);" d="M 323.507812 266.992188 L 323.507812 263.71875 C 323.507812 263.273438 323.734375 263.050781 324.203125 263.050781 L 333.082031 263.050781 C 333.507812 263.050781 333.71875 263.273438 333.71875 263.71875 L 333.71875 268.363281 C 333.71875 270.191406 333.460938 271.714844 332.953125 272.9375 C 332.441406 274.164062 331.722656 275.148438 330.796875 275.882812 C 329.875 276.617188 328.78125 277.132812 327.507812 277.429688 C 326.242188 277.734375 324.863281 277.886719 323.367188 277.886719 C 321.832031 277.886719 320.429688 277.734375 319.164062 277.421875 C 317.894531 277.109375 316.796875 276.578125 315.875 275.816406 C 314.953125 275.054688 314.238281 274.046875 313.734375 272.792969 C 313.238281 271.539062 312.984375 269.960938 312.984375 268.070312 L 312.984375 260.523438 C 312.984375 258.628906 313.238281 257.046875 313.734375 255.777344 C 314.238281 254.511719 314.953125 253.5 315.875 252.738281 C 316.796875 251.976562 317.894531 251.445312 319.164062 251.132812 C 320.429688 250.820312 321.832031 250.667969 323.367188 250.667969 C 324.90625 250.667969 326.308594 250.824219 327.578125 251.152344 C 328.84375 251.476562 329.9375 251.988281 330.84375 252.691406 C 331.757812 253.394531 332.464844 254.304688 332.964844 255.429688 C 333.46875 256.558594 333.71875 257.90625 333.71875 259.488281 L 333.71875 259.550781 C 333.695312 260 333.476562 260.21875 333.050781 260.21875 L 327.613281 260.21875 C 327.148438 260.21875 326.914062 259.984375 326.914062 259.523438 L 326.914062 259.253906 C 326.914062 258.851562 326.855469 258.476562 326.734375 258.121094 C 326.609375 257.765625 326.40625 257.453125 326.132812 257.183594 C 325.855469 256.914062 325.488281 256.699219 325.046875 256.53125 C 324.601562 256.367188 324.042969 256.28125 323.382812 256.28125 C 322.070312 256.28125 321.140625 256.601562 320.59375 257.230469 C 320.046875 257.867188 319.773438 258.871094 319.773438 260.25 L 319.773438 268.300781 C 319.773438 269.683594 320.042969 270.695312 320.59375 271.324219 C 321.140625 271.960938 322.070312 272.273438 323.382812 272.273438 C 324.691406 272.273438 325.609375 271.953125 326.136719 271.324219 C 326.660156 270.6875 326.921875 269.683594 326.921875 268.300781 L 326.921875 267.664062 L 324.214844 267.664062 C 323.734375 267.664062 323.507812 267.4375 323.507812 266.992188 Z M 323.507812 266.992188 "/>
<path style=" stroke:none;fill-rule:nonzero;fill:url(#linear12);" d="M 343.558594 276.679688 C 343.558594 277.144531 343.324219 277.382812 342.855469 277.382812 L 337.382812 277.382812 C 336.933594 277.382812 336.714844 277.148438 336.714844 276.679688 L 336.714844 251.796875 C 336.714844 251.371094 336.933594 251.15625 337.382812 251.15625 L 342.855469 251.15625 C 343.320312 251.15625 343.558594 251.371094 343.558594 251.796875 Z M 345.265625 267.460938 C 344.796875 267.460938 344.566406 267.242188 344.566406 266.796875 L 344.566406 261.617188 C 344.566406 261.171875 344.796875 260.953125 345.265625 260.953125 L 350.902344 260.953125 L 350.902344 251.800781 C 350.902344 251.375 351.125 251.164062 351.570312 251.164062 L 357.046875 251.164062 C 357.507812 251.164062 357.742188 251.375 357.742188 251.800781 L 357.742188 276.683594 C 357.742188 277.148438 357.523438 277.386719 357.074219 277.386719 L 351.570312 277.386719 C 351.125 277.386719 350.902344 277.15625 350.902344 276.683594 L 350.902344 267.460938 Z M 345.265625 267.460938 "/>
<path style=" stroke:none;fill-rule:nonzero;fill:url(#linear13);" d="M 360.71875 257.542969 C 360.296875 257.542969 360.082031 257.324219 360.082031 256.875 L 360.082031 251.859375 C 360.082031 251.398438 360.296875 251.164062 360.71875 251.164062 L 378.140625 251.164062 C 378.5625 251.164062 378.78125 251.398438 378.78125 251.859375 L 378.78125 256.875 C 378.78125 257.324219 378.5625 257.542969 378.140625 257.542969 Z M 372.929688 276.75 C 372.929688 277.167969 372.695312 277.382812 372.230469 277.382812 L 366.59375 277.382812 C 366.140625 277.382812 365.921875 277.167969 365.921875 276.75 L 365.921875 259.179688 C 365.921875 258.753906 366.140625 258.539062 366.59375 258.539062 L 372.230469 258.539062 C 372.695312 258.539062 372.929688 258.753906 372.929688 259.179688 Z M 372.929688 276.75 "/>
</g>
</svg>
