<svg width="68" height="83" viewBox="0 0 68 83" fill="none" xmlns="http://www.w3.org/2000/svg">
<circle cx="16" cy="4" r="4" fill="#4466FE"/>
<circle cx="4" cy="4" r="4" fill="#4466FE"/>
<circle cx="16" cy="19" r="4" fill="#4466FE"/>
<circle cx="4" cy="19" r="4" fill="#4466FE"/>
<circle cx="16" cy="34" r="4" fill="#4466FE"/>
<circle cx="4" cy="34" r="4" fill="#4466FE"/>
<circle cx="16" cy="49" r="4" fill="#4466FE"/>
<circle cx="4" cy="49" r="4" fill="#4466FE"/>
<circle cx="16" cy="64" r="4" fill="#4466FE"/>
<circle cx="16" cy="79" r="4" fill="#4466FE"/>
<circle cx="4" cy="64" r="4" fill="#4466FE"/>
<circle cx="4" cy="79" r="4" fill="#4466FE"/>
<circle cx="28" cy="4" r="4" fill="#4466FE"/>
<circle cx="28" cy="19" r="4" fill="#4466FE"/>
<circle cx="28" cy="34" r="4" fill="#4466FE"/>
<circle cx="28" cy="49" r="4" fill="#4466FE"/>
<circle cx="28" cy="64" r="4" fill="#4466FE"/>
<circle cx="28" cy="79" r="4" fill="#4466FE"/>
<circle cx="40" cy="4" r="4" fill="#4466FE"/>
<circle cx="40" cy="19" r="4" fill="#4466FE"/>
<circle cx="40" cy="34" r="4" fill="#4466FE"/>
<circle cx="40" cy="49" r="4" fill="#4466FE"/>
<circle cx="40" cy="64" r="4" fill="#4466FE"/>
<circle cx="40" cy="79" r="4" fill="#4466FE"/>
<circle cx="52" cy="4" r="4" fill="#4466FE"/>
<circle cx="52" cy="19" r="4" fill="#4466FE"/>
<circle cx="52" cy="34" r="4" fill="#4466FE"/>
<circle cx="52" cy="49" r="4" fill="#4466FE"/>
<circle cx="52" cy="64" r="4" fill="#4466FE"/>
<circle cx="52" cy="79" r="4" fill="#4466FE"/>
<circle cx="64" cy="4" r="4" fill="#4466FE"/>
<circle cx="64" cy="19" r="4" fill="#4466FE"/>
<circle cx="64" cy="34" r="4" fill="#4466FE"/>
<circle cx="64" cy="49" r="4" fill="#4466FE"/>
<circle cx="64" cy="64" r="4" fill="#4466FE"/>
<circle cx="64" cy="79" r="4" fill="#4466FE"/>
</svg>
