<svg width="633" height="410" viewBox="0 0 633 410" fill="none" xmlns="http://www.w3.org/2000/svg">
<path d="M605.129 163.311C605.129 163.311 593.831 103.684 530.447 70.357C467.063 37.03 389.754 45.8035 357.627 82.6338C325.501 119.464 328.088 184.362 294.213 182.655C260.339 180.948 247.322 134.426 200.421 164.24C153.52 194.053 177.845 234.397 174.368 259.829C170.892 285.261 130.943 245.795 98.807 256.316C66.6705 266.836 51.9159 296.659 55.3822 314.206C58.8486 331.753 43.2249 353.662 43.2249 353.662H610.364C610.364 353.662 619.025 239.607 605.129 163.311Z" fill="#E9EAEB"/>
<path d="M13.6758 353.941H619.324" stroke="#263238" stroke-width="1.02262" stroke-linecap="round" stroke-linejoin="round"/>
<path d="M116.459 258.941C119.006 260.048 125.219 259.939 125.229 259.939C125.239 259.939 123.891 255.866 123.771 255.617C122.412 252.772 118.097 248.061 114.581 248.53C114 248.627 113.447 248.844 112.956 249.167C112.465 249.491 112.048 249.914 111.73 250.408C111.413 250.903 111.203 251.459 111.114 252.04C111.025 252.62 111.059 253.213 111.214 253.78C111.803 256.186 114.291 257.992 116.459 258.941Z" fill="#0F7CFF"/>
<path d="M118.606 276.937C121.244 277.326 126.798 275.709 127.237 275.579C128.153 278.754 129.278 281.865 130.604 284.892C131.363 286.658 132.192 288.415 133.041 290.162C132.532 289.423 132.042 288.764 132.042 288.674C129.974 286.289 124.56 282.885 121.303 284.263C120.765 284.508 120.284 284.865 119.892 285.31C119.501 285.754 119.208 286.276 119.032 286.841C118.857 287.407 118.803 288.003 118.874 288.59C118.945 289.178 119.14 289.744 119.445 290.251C120.644 292.437 123.531 293.525 125.869 293.865C128.206 294.204 133.001 292.926 134.26 292.577L135.259 294.573C136.867 297.767 138.486 300.951 139.974 304.125C140.503 305.243 140.973 306.361 141.462 307.479C141.013 306.82 140.623 306.271 140.563 306.191C138.486 303.806 133.081 300.402 129.825 301.78C129.285 302.024 128.802 302.38 128.41 302.824C128.018 303.269 127.724 303.791 127.549 304.357C127.373 304.923 127.32 305.519 127.392 306.107C127.464 306.695 127.66 307.261 127.967 307.768C129.165 309.954 132.052 311.042 134.39 311.381C136.727 311.721 141.063 310.573 142.551 310.154C143.011 311.322 143.47 312.479 143.86 313.627C144.11 314.416 144.409 315.154 144.619 315.963C144.829 316.771 145.059 317.54 145.269 318.318C145.638 319.826 146.018 321.383 146.337 322.87C146.567 323.868 146.767 324.866 146.967 325.864C146.457 324.746 145.408 322.57 145.308 322.401C143.62 319.726 138.795 315.544 135.319 316.412C134.753 316.572 134.226 316.85 133.775 317.227C133.323 317.604 132.956 318.072 132.698 318.601C132.44 319.129 132.296 319.706 132.276 320.294C132.256 320.881 132.36 321.467 132.582 322.011C133.441 324.357 136.128 325.864 138.386 326.553C140.873 327.311 146.377 326.623 147.067 326.553C147.396 328.19 147.706 329.797 147.966 331.314C148.565 334.657 148.965 337.662 149.344 340.207H151.672C151.262 337.572 150.733 334.448 150.034 330.925C149.704 329.258 149.324 327.481 148.905 325.654C150.558 324.992 152.172 324.235 153.74 323.389C155.558 325.385 160.203 327.651 160.802 327.94C160.173 329.497 159.544 330.994 158.924 332.412C157.646 335.406 156.417 337.981 155.338 340.217H157.835C158.764 338.161 159.783 335.815 160.832 333.23C161.482 331.663 162.141 329.966 162.83 328.24C163.5 328.379 168.954 329.477 171.501 328.908C173.799 328.389 176.596 327.082 177.625 324.806C177.887 324.279 178.034 323.703 178.058 323.115C178.081 322.526 177.981 321.94 177.762 321.394C177.543 320.847 177.211 320.353 176.788 319.944C176.365 319.534 175.861 319.218 175.307 319.017C171.951 317.889 166.826 321.702 164.948 324.247C164.838 324.397 163.819 326.154 163.19 327.241C163.46 326.523 163.729 325.834 163.989 325.096C164.528 323.628 164.988 322.161 165.557 320.574C165.787 319.806 166.017 319.027 166.257 318.238C166.496 317.45 166.676 316.602 166.886 315.783C167.345 313.867 167.715 311.9 168.045 309.914C169.323 310.383 173.889 311.97 176.266 311.801C178.644 311.631 181.581 310.803 182.939 308.677C183.278 308.195 183.511 307.647 183.623 307.069C183.736 306.492 183.725 305.897 183.592 305.323C183.459 304.75 183.207 304.211 182.852 303.741C182.497 303.272 182.047 302.882 181.531 302.598C178.384 300.981 172.74 303.975 170.492 306.201C170.352 306.341 168.924 308.118 168.155 309.116C168.344 307.918 168.544 306.73 168.694 305.513C169.124 301.999 169.463 298.436 169.803 294.873C169.913 293.785 170.033 292.707 170.143 291.619C170.602 291.789 175.996 293.795 178.644 293.615C181.001 293.455 183.958 292.617 185.327 290.491C185.665 290.01 185.898 289.463 186.01 288.886C186.123 288.309 186.112 287.715 185.979 287.142C185.846 286.57 185.594 286.032 185.239 285.563C184.884 285.094 184.434 284.706 183.918 284.422C180.762 282.795 175.117 285.79 172.88 288.016C172.71 288.185 170.652 290.75 170.163 291.429C170.422 289.034 170.692 286.658 171.062 284.323C171.527 281.166 172.194 278.042 173.06 274.97C173.269 275.05 178.893 277.166 181.611 276.967C183.968 276.807 186.925 275.968 188.284 273.842C188.622 273.361 188.855 272.813 188.967 272.235C189.08 271.658 189.069 271.063 188.937 270.489C188.804 269.916 188.551 269.377 188.196 268.907C187.841 268.438 187.391 268.048 186.875 267.764C183.728 266.147 178.084 269.141 175.837 271.367C175.667 271.547 173.459 274.302 173.09 274.831C173.149 274.661 173.179 274.461 173.239 274.292C174.206 271.235 175.446 268.272 176.945 265.438C177.745 263.861 178.604 262.444 179.473 261.007C180.472 261.506 185.107 263.751 187.564 263.841C190.022 263.931 192.959 263.402 194.557 261.476C194.947 261.034 195.239 260.515 195.415 259.953C195.59 259.391 195.646 258.799 195.577 258.214C195.508 257.629 195.317 257.066 195.015 256.56C194.714 256.054 194.309 255.617 193.828 255.278C190.831 253.281 184.937 255.677 182.46 257.643C182.33 257.753 181.081 258.99 180.182 259.909C180.582 259.28 180.991 258.631 181.381 258.032C182.869 255.807 184.378 253.85 185.696 252.133C186.466 251.135 187.185 250.307 187.854 249.508C189.103 249.508 194.118 249.329 196.305 248.301C198.493 247.273 200.891 245.426 201.41 242.981C201.551 242.41 201.571 241.815 201.467 241.236C201.364 240.657 201.139 240.106 200.808 239.62C200.478 239.133 200.048 238.721 199.548 238.411C199.047 238.101 198.487 237.9 197.904 237.821C194.377 237.441 190.192 242.272 188.913 245.157C188.793 245.406 187.504 249.508 187.574 249.508H187.644C186.975 250.267 186.276 251.085 185.517 251.994C184.138 253.681 182.6 255.607 181.061 257.813C179.384 260.175 177.843 262.631 176.446 265.169C174.866 268.005 173.545 270.978 172.5 274.052C172.5 274.052 172.5 274.122 172.5 274.162V270C172.091 266.866 169.503 261.017 165.977 260.398C165.395 260.308 164.801 260.341 164.233 260.495C163.665 260.649 163.136 260.921 162.68 261.292C162.224 261.664 161.851 262.128 161.586 262.653C161.321 263.178 161.17 263.753 161.142 264.34C160.932 266.836 162.74 269.331 164.508 270.898C166.506 272.675 172.011 274.391 172.45 274.531C171.463 277.68 170.685 280.891 170.123 284.143C169.783 286.039 169.503 287.956 169.244 289.882C169.244 288.984 169.244 288.185 169.194 288.076C168.784 284.941 166.197 279.092 162.67 278.474C162.085 278.383 161.487 278.417 160.915 278.575C160.344 278.732 159.812 279.008 159.356 279.385C158.899 279.762 158.527 280.232 158.265 280.763C158.003 281.294 157.857 281.874 157.835 282.466C157.636 284.951 159.444 287.457 161.202 289.024C162.96 290.591 167.665 292.178 168.904 292.577C168.814 293.316 168.714 294.054 168.634 294.793C168.205 298.346 167.795 301.889 167.286 305.363C167.116 306.581 166.886 307.778 166.676 308.976V307.409C166.277 304.275 163.679 298.426 160.163 297.807C159.577 297.717 158.978 297.751 158.406 297.908C157.834 298.065 157.302 298.341 156.845 298.718C156.387 299.095 156.015 299.565 155.751 300.096C155.488 300.627 155.341 301.207 155.318 301.8C155.118 304.295 156.926 306.79 158.695 308.357C160.463 309.924 164.688 311.352 166.177 311.841C165.917 313.058 165.657 314.276 165.348 315.454C165.128 316.242 164.958 317.031 164.688 317.809C164.419 318.588 164.189 319.376 163.939 320.135C163.41 321.602 162.86 323.129 162.311 324.527C161.931 325.525 161.552 326.443 161.172 327.381C161.362 326.174 161.691 323.788 161.691 323.578C161.652 320.801 160.902 318.08 159.514 315.673C159.524 315.363 159.504 315.052 159.454 314.745C159.381 314.161 159.186 313.6 158.882 313.096C158.577 312.593 158.17 312.159 157.686 311.824C157.203 311.489 156.654 311.259 156.075 311.15C155.497 311.041 154.902 311.055 154.329 311.192C150.903 312.1 148.725 318.109 148.565 321.263C148.565 321.442 148.685 323.479 148.775 324.756C148.605 324.018 148.445 323.289 148.255 322.53C147.896 321.013 147.496 319.536 147.067 317.899C146.837 317.131 146.597 316.352 146.357 315.564C146.118 314.775 145.808 313.967 145.538 313.168C144.859 311.312 144.08 309.475 143.261 307.639C144.579 307.319 149.254 306.121 151.152 304.644C153.05 303.167 155.018 300.851 154.998 298.356C155.016 297.768 154.909 297.183 154.684 296.639C154.46 296.095 154.123 295.604 153.696 295.199C153.269 294.794 152.761 294.484 152.206 294.288C151.65 294.092 151.06 294.016 150.473 294.064C146.947 294.443 143.89 300.053 143.251 303.147C143.251 303.337 143.001 305.612 142.911 306.86C142.411 305.762 141.912 304.664 141.373 303.566C139.794 300.392 138.106 297.238 136.428 294.084L134.909 291.18C135.379 291.07 140.993 289.772 143.101 288.185C144.969 286.758 146.967 284.402 146.947 281.897C146.961 281.309 146.852 280.725 146.626 280.182C146.4 279.64 146.062 279.15 145.634 278.747C145.206 278.343 144.698 278.033 144.143 277.838C143.588 277.644 142.998 277.568 142.411 277.615C138.895 277.995 135.838 283.604 135.199 286.698C135.199 286.928 134.849 290.201 134.819 291.04C133.711 288.904 132.622 286.768 131.633 284.612C130.293 281.714 129.139 278.733 128.176 275.689C128.396 275.639 134.26 274.312 136.418 272.695C138.296 271.257 140.284 268.912 140.264 266.406C140.278 265.818 140.169 265.234 139.943 264.69C139.717 264.147 139.379 263.657 138.951 263.253C138.524 262.848 138.016 262.538 137.461 262.342C136.906 262.146 136.315 262.068 135.728 262.115C132.212 262.504 129.155 268.103 128.516 271.207C128.516 271.447 128.146 274.97 128.136 275.609C128.136 275.429 128.007 275.25 127.957 275.08C127.08 271.999 126.478 268.846 126.158 265.658C125.959 263.901 125.869 262.204 125.819 260.558C126.938 260.418 132.032 259.739 134.14 258.471C136.248 257.204 138.396 255.128 138.655 252.642C138.735 252.063 138.693 251.473 138.531 250.91C138.369 250.348 138.09 249.825 137.714 249.377C137.337 248.928 136.871 248.564 136.345 248.306C135.819 248.049 135.245 247.904 134.66 247.881C131.113 247.881 127.457 253.112 126.478 256.116C126.478 256.286 126.069 258.002 125.829 259.26V257.034C125.829 254.359 125.999 251.904 126.168 249.738C126.278 248.5 126.398 247.392 126.518 246.354C127.517 245.646 131.643 242.761 132.901 240.695C134.16 238.629 135.139 235.764 134.22 233.439C134.023 232.884 133.712 232.377 133.305 231.951C132.899 231.525 132.408 231.189 131.863 230.966C131.318 230.742 130.732 230.637 130.143 230.655C129.554 230.674 128.976 230.816 128.446 231.073C125.299 232.7 124.45 239.058 124.99 242.142C124.99 242.412 126.228 246.544 126.278 246.514H126.338C126.198 247.512 126.069 248.58 125.939 249.758C125.729 251.924 125.499 254.379 125.439 257.064C125.339 259.96 125.409 262.86 125.649 265.748C125.897 268.983 126.436 272.19 127.257 275.33V275.439C126.708 274.561 125.06 272.176 124.92 272.006C122.842 269.61 117.438 266.207 114.181 267.594C113.64 267.837 113.157 268.193 112.763 268.637C112.37 269.081 112.076 269.604 111.9 270.17C111.724 270.736 111.671 271.333 111.744 271.922C111.817 272.51 112.014 273.076 112.323 273.583C113.382 275.479 116.269 276.597 118.606 276.937Z" fill="#0F7CFF"/>
<path d="M179.373 260.308C179.423 260.308 180.502 256.176 180.542 255.906C180.971 252.772 179.972 246.464 176.786 244.927C176.249 244.685 175.667 244.559 175.078 244.557C174.49 244.555 173.907 244.677 173.369 244.915C172.83 245.154 172.348 245.503 171.954 245.94C171.56 246.377 171.263 246.892 171.082 247.452C170.223 249.798 171.311 252.682 172.59 254.659C174.098 256.984 179.363 260.298 179.373 260.308Z" fill="#0F7CFF"/>
<path d="M563.632 305.024C565.151 305.692 568.867 305.602 568.867 305.602C568.867 305.602 568.068 303.177 567.998 303.027C567.189 301.321 564.601 298.506 562.504 298.785C562.157 298.844 561.827 298.974 561.534 299.169C561.241 299.363 560.992 299.616 560.804 299.913C560.615 300.209 560.492 300.542 560.44 300.889C560.389 301.237 560.411 301.591 560.506 301.929C560.835 303.427 562.334 304.425 563.632 305.024Z" fill="#F0AE00"/>
<path d="M564.911 315.793C566.489 316.023 569.806 315.054 570.076 314.985C570.616 316.881 571.283 318.738 572.074 320.544C572.533 321.602 573.072 322.65 573.532 323.698L572.913 322.81C571.674 321.383 568.437 319.346 566.489 320.175C566.169 320.321 565.883 320.534 565.65 320.798C565.417 321.062 565.243 321.373 565.138 321.709C565.034 322.045 565.001 322.4 565.043 322.749C565.085 323.099 565.2 323.436 565.38 323.738C565.826 324.355 566.401 324.868 567.065 325.24C567.729 325.613 568.467 325.836 569.227 325.894C570.921 325.894 572.605 325.635 574.221 325.125L574.811 326.323C575.81 328.24 576.739 330.146 577.638 332.042C577.947 332.711 578.237 333.38 578.517 334.039C578.247 333.639 578.017 333.31 577.977 333.27C576.739 331.833 573.512 329.797 571.554 330.625C571.235 330.773 570.95 330.986 570.718 331.25C570.486 331.515 570.312 331.825 570.208 332.161C570.103 332.496 570.071 332.85 570.111 333.2C570.152 333.549 570.266 333.886 570.445 334.188C571.164 335.496 572.893 336.185 574.291 336.354C575.948 336.359 577.595 336.11 579.176 335.616C579.446 336.314 579.726 337.003 579.955 337.692C580.105 338.161 580.285 338.61 580.405 339.089C580.525 339.568 580.675 340.037 580.804 340.496C581.014 341.405 581.244 342.333 581.434 343.221C581.574 343.84 581.693 344.429 581.813 345.028C581.504 344.359 580.884 343.032 580.814 342.952C579.815 341.355 576.918 338.849 574.821 339.378C574.483 339.475 574.169 339.641 573.9 339.866C573.63 340.091 573.411 340.371 573.257 340.686C573.102 341.001 573.016 341.345 573.003 341.696C572.99 342.047 573.051 342.397 573.182 342.722C573.692 344.13 575.3 345.028 576.649 345.447C577.997 345.866 581.434 345.447 581.843 345.447C582.387 348.153 582.843 350.876 583.212 353.612H584.6C584.361 352.045 584.041 350.168 583.602 348.072C583.402 347.074 583.172 346.006 582.932 344.918C583.923 344.517 584.89 344.06 585.829 343.551C587.102 344.648 588.521 345.565 590.045 346.275C589.675 347.204 589.296 348.102 588.926 348.95C588.157 350.717 587.428 352.284 586.778 353.612H588.387C588.936 352.384 589.545 350.987 590.185 349.439C590.574 348.491 590.964 347.443 591.363 346.445C591.763 346.525 595.02 347.184 596.548 346.844C597.917 346.535 599.595 345.756 600.204 344.389C600.361 344.074 600.449 343.73 600.463 343.378C600.478 343.027 600.418 342.677 600.288 342.35C600.158 342.024 599.96 341.728 599.708 341.482C599.457 341.237 599.156 341.047 598.826 340.926C596.828 340.257 593.751 342.533 592.622 344.06C592.562 344.149 591.953 345.197 591.623 345.876L592.103 344.589C592.422 343.71 592.722 342.832 593.042 341.884L593.461 340.486C593.611 340.017 593.711 339.488 593.841 339.019C594.111 337.871 594.33 336.694 594.53 335.506C596.1 336.137 597.758 336.521 599.445 336.644C600.208 336.64 600.96 336.47 601.65 336.146C602.34 335.822 602.951 335.351 603.441 334.767C603.643 334.479 603.782 334.151 603.848 333.805C603.915 333.46 603.908 333.104 603.828 332.761C603.748 332.418 603.596 332.096 603.383 331.816C603.17 331.536 602.901 331.303 602.592 331.134C600.714 330.136 597.337 331.953 595.999 333.29C595.909 333.37 595.06 334.438 594.6 335.037C594.71 334.318 594.83 333.599 594.92 332.881C595.179 330.775 595.379 328.639 595.579 326.513L595.789 324.566C596.058 324.666 599.285 325.864 600.864 325.754C602.282 325.654 604.05 325.145 604.859 323.888C605.062 323.6 605.201 323.273 605.269 322.928C605.336 322.582 605.33 322.227 605.251 321.884C605.172 321.541 605.021 321.219 604.809 320.938C604.597 320.658 604.328 320.425 604.02 320.255C602.132 319.257 598.756 321.073 597.417 322.411C597.317 322.51 596.088 324.047 595.799 324.407C595.949 322.979 596.108 321.552 596.328 320.155C596.613 318.266 597.024 316.399 597.557 314.565C597.677 314.615 601.043 315.883 602.662 315.763C604.07 315.663 605.848 315.154 606.657 313.897C606.86 313.609 606.999 313.282 607.067 312.937C607.134 312.591 607.128 312.236 607.049 311.893C606.97 311.55 606.819 311.228 606.607 310.947C606.395 310.667 606.126 310.434 605.818 310.264C603.93 309.265 600.554 311.082 599.215 312.419C599.115 312.519 597.787 314.176 597.577 314.486C597.577 314.386 597.627 314.266 597.657 314.166C598.237 312.34 598.979 310.57 599.875 308.876C600.354 307.878 600.874 307.06 601.383 306.221C602.903 307.027 604.537 307.599 606.228 307.918C606.977 307.997 607.735 307.913 608.449 307.672C609.163 307.43 609.816 307.038 610.364 306.521C610.598 306.257 610.773 305.947 610.879 305.611C610.984 305.275 611.017 304.92 610.976 304.571C610.934 304.221 610.819 303.884 610.638 303.582C610.456 303.279 610.213 303.019 609.924 302.818C608.156 301.64 604.61 303.047 603.131 304.235C603.051 304.295 602.302 305.033 601.763 305.582C602.002 305.213 602.242 304.814 602.482 304.464C603.296 303.252 604.159 302.073 605.069 300.931C605.529 300.352 605.948 299.843 606.358 299.364C608.069 299.377 609.773 299.135 611.412 298.645C612.691 298.037 614.15 296.919 614.459 295.461C614.545 295.12 614.558 294.764 614.497 294.417C614.436 294.07 614.301 293.74 614.103 293.449C613.905 293.158 613.647 292.912 613.347 292.727C613.047 292.542 612.711 292.423 612.362 292.377C610.254 292.148 607.756 295.032 606.987 296.759C606.917 296.909 606.148 299.364 606.188 299.364C605.788 299.813 605.369 300.302 604.919 300.851C604.09 301.849 603.171 303.007 602.252 304.335C601.246 305.744 600.322 307.211 599.485 308.726C598.547 310.425 597.758 312.202 597.127 314.036C597.127 314.036 597.127 314.086 597.127 314.106V311.621C596.878 309.744 595.309 306.261 593.222 305.882C592.874 305.828 592.519 305.848 592.18 305.94C591.841 306.033 591.525 306.195 591.253 306.417C590.981 306.639 590.758 306.916 590.6 307.23C590.442 307.543 590.351 307.887 590.335 308.237C590.215 309.725 591.333 311.232 592.332 312.16C593.331 313.088 596.828 314.246 597.087 314.326C596.497 316.21 596.03 318.13 595.689 320.075C595.489 321.213 595.319 322.361 595.169 323.508V322.431C594.93 320.554 593.351 317.071 591.274 316.691C590.925 316.635 590.569 316.652 590.228 316.743C589.887 316.834 589.569 316.996 589.295 317.219C589.022 317.441 588.798 317.719 588.64 318.034C588.481 318.35 588.392 318.695 588.377 319.047C588.257 320.534 589.375 322.041 590.374 322.969C591.792 323.907 593.345 324.62 594.98 325.086C594.93 325.535 594.87 325.974 594.81 326.413C594.56 328.539 594.31 330.665 594.011 332.741C593.901 333.47 593.771 334.178 593.641 334.897V333.959C593.391 332.082 591.823 328.609 589.735 328.22C589.388 328.166 589.033 328.186 588.694 328.278C588.355 328.37 588.039 328.533 587.767 328.755C587.494 328.977 587.272 329.254 587.114 329.568C586.955 329.881 586.865 330.224 586.848 330.575C586.718 332.062 587.847 333.569 588.846 334.498C590.223 335.417 591.732 336.121 593.321 336.584C593.172 337.312 593.012 338.041 592.832 338.74C592.692 339.219 592.602 339.688 592.432 340.157L591.983 341.544C591.663 342.423 591.343 343.321 590.984 344.169C590.754 344.758 590.534 345.317 590.305 345.876C590.414 345.148 590.614 343.73 590.614 343.601C590.589 341.938 590.139 340.309 589.306 338.869C589.325 338.687 589.325 338.503 589.306 338.32C589.263 337.971 589.147 337.634 588.965 337.332C588.783 337.03 588.54 336.77 588.25 336.57C587.96 336.369 587.631 336.232 587.285 336.167C586.938 336.102 586.581 336.112 586.239 336.194C584.191 336.733 582.892 340.327 582.792 342.183C582.792 342.293 582.862 343.511 582.922 344.279C582.812 343.83 582.722 343.401 582.613 342.942C582.393 342.043 582.153 341.145 581.903 340.177C581.763 339.718 581.614 339.249 581.474 338.78C581.334 338.311 581.144 337.782 580.984 337.342C580.575 336.234 580.115 335.137 579.616 334.039C581.272 333.694 582.865 333.098 584.341 332.272C584.974 331.849 585.508 331.293 585.905 330.644C586.302 329.994 586.552 329.265 586.638 328.509C586.649 328.157 586.586 327.807 586.452 327.481C586.318 327.156 586.116 326.862 585.861 326.62C585.605 326.377 585.301 326.192 584.968 326.075C584.636 325.959 584.282 325.914 583.931 325.944C581.823 326.173 579.995 329.527 579.616 331.374C579.616 331.493 579.466 332.851 579.416 333.599C579.116 332.941 578.817 332.282 578.487 331.603C577.548 329.707 576.539 327.82 575.49 325.934C575.19 325.355 574.891 324.776 574.581 324.197C574.871 324.127 578.217 323.359 579.486 322.391C580.119 321.968 580.653 321.412 581.05 320.762C581.447 320.112 581.697 319.384 581.783 318.628C581.795 318.276 581.731 317.926 581.597 317.6C581.463 317.274 581.261 316.981 581.006 316.738C580.75 316.496 580.446 316.311 580.113 316.194C579.781 316.078 579.427 316.033 579.076 316.063C576.968 316.292 575.14 319.646 574.761 321.492C574.761 321.632 574.551 323.588 574.531 324.087C573.872 322.82 573.222 321.532 572.633 320.255C571.827 318.522 571.136 316.738 570.565 314.915C570.695 314.915 574.191 314.086 575.49 313.098C576.124 312.675 576.657 312.12 577.054 311.47C577.451 310.82 577.701 310.092 577.788 309.335C577.797 308.984 577.732 308.634 577.598 308.309C577.463 307.984 577.262 307.691 577.006 307.45C576.751 307.208 576.448 307.022 576.116 306.905C575.784 306.788 575.431 306.742 575.08 306.77C572.973 307 571.144 310.353 570.765 312.21C570.765 312.35 570.545 314.456 570.535 314.835C570.535 314.735 570.455 314.625 570.425 314.525C569.9 312.682 569.543 310.794 569.356 308.886C569.236 307.888 569.177 306.82 569.147 305.892C569.816 305.802 572.863 305.403 574.141 304.634C574.819 304.286 575.413 303.793 575.88 303.192C576.348 302.59 576.678 301.893 576.849 301.151C576.896 300.802 576.87 300.447 576.771 300.109C576.673 299.771 576.504 299.457 576.276 299.189C576.048 298.921 575.765 298.703 575.448 298.551C575.13 298.399 574.783 298.315 574.431 298.306C572.313 298.306 570.126 301.43 569.546 303.227C569.546 303.327 569.306 304.355 569.157 305.113V303.786C569.157 302.179 569.266 300.712 569.366 299.414C569.426 298.675 569.496 298.017 569.566 297.418C571.008 296.493 572.298 295.352 573.392 294.034C574.121 292.826 574.731 291.09 574.181 289.702C574.064 289.37 573.877 289.067 573.634 288.812C573.391 288.557 573.096 288.356 572.77 288.222C572.444 288.088 572.093 288.025 571.741 288.036C571.388 288.046 571.042 288.131 570.725 288.285C568.847 289.283 568.347 293.036 568.657 294.903C568.657 295.062 569.396 297.538 569.426 297.518C569.346 298.116 569.256 298.765 569.187 299.514C569.057 300.811 568.927 302.279 568.887 303.886C568.829 305.617 568.869 307.349 569.007 309.076C569.168 311.011 569.502 312.929 570.006 314.805C570 314.828 570 314.852 570.006 314.875C569.666 314.356 568.687 312.879 568.597 312.819C567.358 311.391 564.132 309.355 562.174 310.184C561.855 310.33 561.57 310.542 561.338 310.806C561.107 311.07 560.933 311.379 560.828 311.714C560.724 312.049 560.691 312.402 560.732 312.751C560.772 313.099 560.886 313.435 561.065 313.737C561.784 314.935 563.512 315.583 564.911 315.793Z" fill="#0F7CFF"/>
<path d="M601.253 305.842C601.253 305.842 601.933 303.376 601.952 303.207C602.212 301.34 601.613 297.567 599.705 296.649C599.384 296.504 599.037 296.429 598.685 296.427C598.334 296.426 597.986 296.499 597.664 296.641C597.342 296.783 597.054 296.992 596.819 297.253C596.584 297.514 596.406 297.822 596.298 298.156C595.779 299.564 596.428 301.28 597.197 302.468C598.096 303.866 601.253 305.842 601.253 305.842Z" fill="#0F7CFF"/>
<path d="M385.108 308.986C395.097 307.573 405.161 306.749 415.247 306.521C430.831 306.271 435.935 307.289 439.771 308.517C443.607 309.744 447.024 320.494 441.999 330.735C436.974 340.975 419.333 349.41 395.318 347.343C371.303 345.277 354.191 340.456 344.99 333.559C335.79 326.663 343.991 322.84 354.191 317.22C364.39 311.601 378.226 308.637 385.108 308.986Z" fill="#263238" stroke="#263238" stroke-width="1.02262" stroke-linecap="round" stroke-linejoin="round"/>
<path d="M365.179 332.561C365.179 332.561 400.942 312.909 413.459 309.335C425.976 305.762 440.281 304.994 446.924 309.335C453.567 313.677 452.029 327.711 448.972 333.07C445.915 338.43 421.121 349.659 407.325 353.741C393.53 357.824 339.626 357.574 324.811 358.852C309.997 360.129 274.224 359.361 269.119 356.556C264.015 353.751 267.122 350.677 274.484 348.891C281.846 347.104 306.451 347.104 317.909 343.79C329.367 340.476 356.748 336.893 365.179 332.561Z" fill="white" stroke="#263238" stroke-width="1.02262" stroke-linecap="round" stroke-linejoin="round"/>
<path d="M448.972 333.07C450.46 330.455 451.589 325.784 451.589 321.173C442.329 328.509 427.904 337.193 407.965 344.309C389.054 351.056 335.51 357.095 313.373 359.381C317.769 359.291 321.745 359.111 324.811 358.852C339.626 357.574 393.53 357.854 407.325 353.741C421.121 349.629 445.905 338.43 448.972 333.07Z" fill="#263238" stroke="#263238" stroke-width="1.02262" stroke-linecap="round" stroke-linejoin="round"/>
<path d="M423.688 347.713C427.484 346.106 431.27 344.359 434.737 342.622C435.496 338.87 436.395 327.84 428.313 306.581C423.284 307.015 418.309 307.938 413.459 309.335C413.459 309.335 428.603 326.643 423.688 347.713Z" fill="#263238" stroke="#263238" stroke-width="1.02262" stroke-linecap="round" stroke-linejoin="round"/>
<path d="M330.206 340.995C325.401 341.994 321.065 342.882 317.909 343.79C306.42 347.104 281.896 347.104 274.484 348.891C267.072 350.677 264.005 353.741 269.119 356.556C274.234 359.371 309.997 360.129 324.811 358.852C326.56 358.702 328.857 358.572 331.564 358.452C325.66 352.035 328.348 344.539 330.206 340.995Z" fill="white" stroke="#263238" stroke-width="1.02262" stroke-linecap="round" stroke-linejoin="round"/>
<path d="M306.93 300.432C306.93 300.432 283.684 303.247 271.966 304.265C260.249 305.283 239.001 314.735 234.675 323.918C230.35 333.1 243.316 344.05 250.739 346.345C258.161 348.641 280.368 353.741 292.635 352.983C304.902 352.224 341.174 341.495 347.578 339.448C353.981 337.402 365.209 332.561 365.209 332.561C365.209 332.561 354.47 332.561 336.339 323.369C318.208 314.176 315.361 304.734 306.93 300.432Z" fill="white" stroke="#263238" stroke-width="1.02262" stroke-linecap="round" stroke-linejoin="round"/>
<path d="M257.022 307.688C257.022 307.688 275.353 305.782 283.754 311.89C292.155 317.999 297.5 336.693 297.5 336.693L336.309 323.389C336.309 323.389 333.402 320.304 326.14 311.521C318.878 302.738 297.5 297.767 284.893 300.432C272.286 303.097 257.022 307.688 257.022 307.688Z" fill="#263238" stroke="#263238" stroke-width="1.02262" stroke-linecap="round" stroke-linejoin="round"/>
<path d="M345.71 340.027L347.548 339.448C353.931 337.452 365.179 332.561 365.179 332.561C365.179 332.561 356.938 332.561 342.693 326.373C344.721 329.787 346.749 334.767 345.71 340.027Z" fill="white" stroke="#263238" stroke-width="1.02262" stroke-linecap="round" stroke-linejoin="round"/>
<path d="M359.535 334.917C343.926 336.916 328.486 340.069 313.343 344.349C291.256 350.587 264.624 348.342 251.718 346.685C259.949 349.09 280.867 353.751 292.675 353.023C304.932 352.254 341.214 341.535 347.618 339.488C350.974 338.361 355.799 336.454 359.535 334.917Z" fill="#263238" stroke="#263238" stroke-width="1.02262" stroke-linecap="round" stroke-linejoin="round"/>
<path d="M383.73 226.212L378.485 277.805C378.485 277.805 380.973 290.221 382.631 295.192C384.289 300.163 385.938 308.167 385.109 308.986C384.279 309.804 383.73 309.265 377.936 310.912C372.142 312.559 365.229 322.5 356.398 326.383C347.568 330.266 340.415 328.319 332.094 325.006C323.772 321.692 308.349 301.56 305.032 301.001C301.715 300.442 291.786 298.795 287.64 297.418C283.494 296.04 278.53 290.241 278.53 290.241C278.53 290.241 277.7 290.241 277.7 287.247C277.7 284.253 277.98 283.943 277.98 283.943C276.658 282.74 275.7 281.191 275.213 279.472C274.664 276.996 280.458 263.751 280.458 255.467C280.458 247.183 284.603 216.022 284.603 212.159C284.603 208.296 290.397 207.468 296.471 204.982C302.545 202.497 334.581 190.64 335.131 187.326C335.68 184.012 337.898 160.836 337.898 160.836C337.898 160.836 355.08 179.201 357.228 180.708C358.799 181.773 360.194 183.077 361.363 184.571L359.435 193.634C359.435 193.634 367.717 199.702 373.241 203.016C378.765 206.33 386.227 209.354 386.497 211.56" fill="white"/>
<path d="M383.73 226.212L378.485 277.805C378.485 277.805 380.973 290.221 382.631 295.192C384.289 300.163 385.938 308.167 385.109 308.986C384.279 309.804 383.73 309.265 377.936 310.912C372.142 312.559 365.229 322.5 356.398 326.383C347.568 330.266 340.415 328.319 332.094 325.006C323.772 321.692 308.349 301.56 305.032 301.001C301.715 300.442 291.786 298.795 287.64 297.418C283.494 296.04 278.53 290.241 278.53 290.241C278.53 290.241 277.7 290.241 277.7 287.247C277.7 284.253 277.98 283.943 277.98 283.943C276.658 282.74 275.7 281.191 275.213 279.472C274.664 276.996 280.458 263.751 280.458 255.467C280.458 247.183 284.603 216.022 284.603 212.159C284.603 208.296 290.397 207.468 296.471 204.982C302.545 202.497 334.581 190.64 335.131 187.326C335.68 184.012 337.898 160.836 337.898 160.836C337.898 160.836 355.08 179.201 357.228 180.708C358.799 181.773 360.194 183.077 361.363 184.571L359.435 193.634C359.435 193.634 367.717 199.702 373.241 203.016C378.765 206.33 386.227 209.354 386.497 211.56" stroke="#263238" stroke-width="1.02262" stroke-linecap="round" stroke-linejoin="round"/>
<path d="M296.94 286.898C298.346 288.009 299.584 289.317 300.617 290.78M277.71 287.187C277.71 287.187 285.642 281.688 293.574 284.931" stroke="#263238" stroke-width="1.02262" stroke-linecap="round" stroke-linejoin="round"/>
<path d="M364.4 197.207C361.573 195.211 359.405 193.664 359.405 193.664L361.333 184.561C360.176 183.055 358.791 181.738 357.228 180.659C355.08 179.151 337.898 160.786 337.898 160.786C337.898 160.786 335.69 183.962 335.131 187.276C334.951 188.354 331.454 190.33 326.609 192.586C327.459 197.916 330.485 206.789 341.204 210.173C351.923 213.556 360.204 203.805 364.4 197.207Z" fill="white" stroke="#263238" stroke-width="1.02262" stroke-linecap="round" stroke-linejoin="round"/>
<path d="M359.515 193.724L359.435 193.664L361.363 184.561C360.197 183.052 358.802 181.736 357.228 180.658C356.009 179.8 349.935 173.512 344.92 168.242L343.642 174.32C343.642 174.32 343.642 191.638 359.515 193.724Z" fill="#263238"/>
<path d="M342.153 103.914C342.153 103.914 341.364 97.326 336.09 96.0085C330.815 94.691 318.688 95.4795 314.462 103.385C310.237 111.29 313.413 117.358 314.992 118.356C315.911 118.969 316.884 119.497 317.899 119.933L319.217 113.346C319.217 113.346 319.737 119.145 323.433 120.462C327.129 121.78 334.771 120.462 334.771 120.462C334.771 120.462 341.364 115.781 342.153 103.914ZM390.912 127.449C390.912 127.449 400.303 133.518 400.303 139.586C400.303 145.655 388.705 147.861 388.705 147.861L390.912 127.449Z" fill="#263238" stroke="#263238" stroke-width="1.02262" stroke-linecap="round" stroke-linejoin="round"/>
<path d="M393.05 128.677C393.05 128.677 391.991 141.323 390.942 148.439C389.894 155.556 385.408 161.345 385.139 166.096C384.869 170.847 374.33 182.425 369.055 186.378C363.781 190.33 355.869 189.013 351.913 185.859C345.938 180.68 341.243 174.189 338.197 166.894C335.041 158.73 337.408 146.872 338.197 143.179C338.987 139.486 358.766 125.004 373.8 125.004C388.835 125.004 393.05 128.677 393.05 128.677Z" fill="white" stroke="#263238" stroke-width="1.02262" stroke-linecap="round" stroke-linejoin="round"/>
<path d="M376.437 158.191C376.437 158.191 377.496 167.673 377.496 168.461C377.496 169.25 375.119 171.626 371.163 169.25M360.624 169.25C360.624 169.25 364.84 174.52 371.702 174.241" stroke="#263238" stroke-width="1.02262" stroke-linecap="round" stroke-linejoin="round"/>
<path d="M374.859 149.717C368.819 146.439 361.898 145.147 355.08 146.024C355.08 146.024 351.913 146.024 353.761 148.399C353.761 148.399 352.972 156.305 354.81 158.68C356.648 161.056 360.884 162.892 365.099 162.892C369.315 162.892 373.541 157.921 374.859 149.717Z" stroke="#263238" stroke-width="2.04523" stroke-linecap="round" stroke-linejoin="round"/>
<path d="M353.491 146.333L336.359 145.275L353.491 146.333Z" fill="white"/>
<path d="M353.491 146.333L336.359 145.275" stroke="#263238" stroke-width="2.04523" stroke-linecap="round" stroke-linejoin="round"/>
<path d="M374.859 149.717L379.335 151.035C379.335 151.035 377.496 160.786 378.545 163.421C378.886 164.266 379.42 165.019 380.106 165.619C380.791 166.219 381.608 166.649 382.491 166.875C383.873 167.272 385.293 167.526 386.727 167.633C388.835 167.633 393.31 163.421 394.369 156.045C394.369 156.045 395.687 155.516 395.158 154.728C394.629 153.939 388.255 150.246 379.554 151.035" stroke="#263238" stroke-width="2.04523" stroke-linecap="round" stroke-linejoin="round"/>
<path d="M374.609 152.132C374.609 152.132 377.976 152.352 378.975 153.62" stroke="#263238" stroke-width="2.04523" stroke-linecap="round" stroke-linejoin="round"/>
<path d="M365.489 155.137C365.179 156.863 364.33 158.131 363.571 158.021C362.812 157.912 362.462 156.384 362.772 154.658C363.081 152.931 363.931 151.663 364.68 151.773C365.429 151.883 365.789 153.41 365.489 155.137Z" fill="#263238"/>
<path d="M384.717 159.762C385.137 158.248 384.944 156.872 384.285 156.689C383.626 156.507 382.75 157.585 382.329 159.099C381.909 160.613 382.102 161.988 382.761 162.171C383.42 162.354 384.296 161.275 384.717 159.762Z" fill="#263238"/>
<path d="M359.985 148.968C359.985 148.968 366.618 146.723 369.615 150.346M381.802 153.929C381.802 153.929 384.799 151.174 387.326 155.037" stroke="#263238" stroke-width="2.04523" stroke-linecap="round" stroke-linejoin="round"/>
<path d="M347.428 143.728C347.428 143.728 361.673 136.083 373.8 133.747C385.928 131.412 395.158 132.43 397.266 125.313C399.374 118.197 385.138 106.349 370.374 102.127C355.609 97.9049 337.938 102.386 330.815 112.927C323.693 123.467 326.07 136.113 328.178 140.874C330.286 145.635 331.874 149.308 335.83 149.857C339.786 150.406 347.428 143.728 347.428 143.728Z" fill="#263238" stroke="#263238" stroke-width="1.02262" stroke-linecap="round" stroke-linejoin="round"/>
<path d="M337.118 135.334C335.676 136.181 334.38 137.256 333.282 138.518M386.727 117.388C386.727 117.388 390.563 119.694 379.414 124.305C371.323 127.649 354.92 128.567 343.452 132.49M371.912 114.693C372.834 113.689 373.553 112.516 374.03 111.24M330.585 133.907C330.585 133.907 327.129 128.916 339.046 125.453C347.647 122.958 360.025 122.069 367.727 117.867" stroke="white" stroke-width="1.02262" stroke-linecap="round" stroke-linejoin="round"/>
<path d="M340.045 153.71C340.045 153.71 337.958 143.429 333.462 143.429C328.967 143.429 328.378 148.18 330.176 153.969C331.974 159.758 334.961 161.615 337.658 159.768" fill="white"/>
<path d="M340.045 153.71C340.045 153.71 337.958 143.429 333.462 143.429C328.967 143.429 328.378 148.18 330.176 153.969C331.974 159.758 334.961 161.615 337.658 159.768" stroke="#263238" stroke-width="1.02262" stroke-linecap="round" stroke-linejoin="round"/>
<path d="M305.032 300.981C305.032 300.981 306.141 299.604 306.141 295.192C306.141 290.78 303.144 276.158 301.725 265.947C300.307 255.737 298.958 236.154 298.958 227.869M332.863 269.091C333.542 270.211 334.3 271.282 335.131 272.295M317.459 218.218C317.459 218.218 322.454 248.71 330.885 265.538M334.791 244.168C335.91 246.275 337.039 248.241 338.167 249.948M320.776 209.664C324.213 220.118 328.253 230.366 332.873 240.356" stroke="#263238" stroke-width="1.02262" stroke-linecap="round" stroke-linejoin="round"/>
<path d="M261.407 289.124C261.407 289.124 264.404 291.609 270.518 291.609C276.632 291.609 281.846 288.565 289.568 290.501C297.29 292.437 297.3 300.153 296.471 302.368C295.642 304.584 288.19 305.952 281.287 305.123C274.384 304.295 260.309 302.917 260.309 302.917C260.309 302.917 262.516 294.913 261.407 289.124Z" fill="white" stroke="#263238" stroke-width="1.02262" stroke-linecap="round" stroke-linejoin="round"/>
<path d="M255.733 282.107C256.067 283.144 256.607 284.103 257.321 284.927C258.035 285.75 258.909 286.42 259.889 286.898C263.405 288.814 264.684 293.884 264.684 296.789C264.731 298.305 264.515 299.818 264.045 301.26C264.045 301.26 263.046 305.093 259.889 305.732C256.732 306.371 254.774 308.287 250.948 304.454C247.122 300.622 241.748 288.455 241.748 288.455L242.387 286.538C244.372 286.503 246.329 286.068 248.141 285.261C250.669 284.023 255.733 282.107 255.733 282.107Z" fill="white" stroke="#263238" stroke-width="1.02262" stroke-linecap="round" stroke-linejoin="round"/>
<path d="M237.882 269.021L259.929 305.732" stroke="#263238" stroke-width="3.06785" stroke-linecap="round" stroke-linejoin="round"/>
<path d="M244.595 305.423C246.532 307.104 249.022 308.014 251.588 307.978C256.053 307.978 260.528 305.103 258.291 304.145C256.053 303.187 254.455 302.229 252.856 302.867C251.258 303.506 244.595 305.423 244.595 305.423Z" fill="white" stroke="#263238" stroke-width="1.02262" stroke-linecap="round" stroke-linejoin="round"/>
<path d="M241.398 300.622C241.398 300.622 243.316 306.051 244.915 306.69C246.513 307.329 253.216 305.692 255.134 304.454C257.052 303.217 253.855 300.941 250.988 300.941C248.121 300.941 241.398 300.622 241.398 300.622Z" fill="white" stroke="#263238" stroke-width="1.02262" stroke-linecap="round" stroke-linejoin="round"/>
<path d="M240.12 292.327C240.12 292.327 238.841 299.025 241.398 300.622C243.956 302.219 253.855 302.857 254.814 300.941C255.773 299.025 252.257 298.067 248.751 296.47C245.244 294.873 240.12 292.327 240.12 292.327ZM250.029 283.065C250.029 283.065 250.349 295.521 251.628 296.789C252.906 298.057 255.773 298.386 256.413 297.428C257.052 296.47 257.691 285.62 255.773 282.107C253.855 278.593 250.029 283.065 250.029 283.065Z" fill="white" stroke="#263238" stroke-width="1.02262" stroke-linecap="round" stroke-linejoin="round"/>
<path d="M242.357 286.578C242.357 286.578 238.202 285.58 238.202 289.772C238.202 293.964 243.956 296.47 246.513 296.759C249.07 297.049 251.947 296.12 249.71 294.214C247.472 292.308 244.275 288.175 242.357 286.578Z" fill="white" stroke="#263238" stroke-width="1.02262" stroke-linecap="round" stroke-linejoin="round"/>
<path d="M273.715 306.78L291.596 304.225C291.596 304.225 289.298 300.911 283.424 300.911C277.551 300.911 273.974 303.716 273.205 304.734C272.436 305.752 273.715 306.78 273.715 306.78Z" fill="#263238" stroke="#263238" stroke-width="1.02262" stroke-linecap="round" stroke-linejoin="round"/>
<path d="M309.737 327.96L338.347 317.979C338.347 317.979 331.454 303.426 318.428 298.326C305.402 293.226 286.072 294.533 277.89 297.597L280.887 300.881C280.887 300.881 286.771 301.131 293.154 308.537C299.538 315.943 305.931 327.681 305.931 327.681L309.737 327.96Z" fill="white" stroke="#263238" stroke-width="1.02262" stroke-linecap="round" stroke-linejoin="round"/>
<path d="M291.886 299.005C291.886 299.005 303.244 297.388 315.151 322.79M297.49 297.887C297.49 297.887 308.848 296.27 320.746 321.672" stroke="#0F7CFF" stroke-width="1.02262" stroke-linecap="round" stroke-linejoin="round"/>
<path d="M302.185 296.999C302.185 296.999 313.553 295.372 325.451 320.774" stroke="#0F7CFF" stroke-width="1.02262" stroke-linecap="round" stroke-linejoin="round"/>
<path d="M233.606 324.646C233.606 324.646 246.383 305.762 270.138 307.289L273.715 306.78C273.715 306.78 276.012 301.42 282.655 302.698C289.298 303.975 306.421 330.266 306.421 330.266L309.737 327.96C309.737 327.96 300.697 312.659 293.804 304.005C286.911 295.352 277.89 295.621 275.003 298.805C273.431 300.795 272.03 302.916 270.818 305.143C270.818 305.143 268.16 301.151 260.299 302.937C250.649 305.143 245.314 309.435 242.577 312.399C238.581 316.711 230.53 322.57 231.309 322.111L233.606 324.646Z" fill="white" stroke="#263238" stroke-width="1.02262" stroke-linecap="round" stroke-linejoin="round"/>
<path d="M306.421 330.266L336.819 319.796L338.347 318.009L309.737 327.96L306.421 330.266ZM381.392 207.608C381.392 207.608 392.381 211.391 394.019 217.18C395.657 222.969 403.889 254.649 406.097 259.33C408.304 264.011 413.279 266.786 413.279 270.369C413.279 273.952 413.549 276.717 413.549 276.717C413.549 276.717 419.353 276.997 419.902 281.708C420.452 286.419 421.56 292.447 421.56 292.447L443.657 326.603C443.657 326.603 456.834 327.661 459.871 327.391C462.907 327.122 471.938 327.691 475.235 329.388C476.513 330.056 479.061 332.252 481.048 339.269C482.047 342.762 484.245 349.519 482.857 349.25C481.468 348.98 479.78 345.128 479.23 344.259C478.409 342.453 477.685 340.604 477.063 338.72C477.063 338.72 478.171 346.705 478.441 348.382C478.569 349.512 478.378 350.656 477.892 351.685H477.772C476.416 352.234 474.918 352.325 473.506 351.945L472.367 351.635C471.307 352.213 470.06 352.346 468.901 352.005L467.672 351.635C467.672 351.635 465.884 345.976 464.226 343.76C462.568 341.545 457.363 339.159 457.363 339.159C457.363 339.159 462.977 345.567 462.708 349.709C462.588 351.386 462.977 352.703 461.599 351.915C460.22 351.126 458.602 346.924 455.525 345.567C452.448 344.209 445.306 342.263 442.539 340.576C439.771 338.89 435.356 332.851 435.356 332.851L399.194 300.432C399.194 300.432 395.608 296.849 395.048 294.913L394.499 292.986C394.499 292.986 389.504 289.992 388.145 288.295C386.787 286.598 386.217 283.055 386.217 283.055L378.765 274.481L383.76 227.3" fill="white"/>
<path d="M381.392 207.608C381.392 207.608 392.381 211.391 394.019 217.18C395.657 222.969 403.889 254.649 406.097 259.33C408.304 264.011 413.279 266.786 413.279 270.369C413.279 273.952 413.549 276.717 413.549 276.717C413.549 276.717 419.353 276.997 419.902 281.708C420.452 286.419 421.56 292.447 421.56 292.447L443.657 326.603C443.657 326.603 456.834 327.661 459.871 327.391C462.907 327.122 471.938 327.691 475.235 329.388C476.513 330.056 479.061 332.252 481.048 339.269C482.047 342.762 484.245 349.519 482.857 349.25C481.468 348.98 479.78 345.128 479.23 344.259C478.409 342.453 477.685 340.604 477.063 338.72C477.063 338.72 478.171 346.705 478.441 348.382C478.569 349.512 478.378 350.656 477.892 351.685H477.772C476.416 352.234 474.918 352.325 473.506 351.945L472.367 351.635C471.307 352.213 470.06 352.346 468.901 352.005L467.672 351.635C467.672 351.635 465.884 345.976 464.226 343.76C462.568 341.545 457.363 339.159 457.363 339.159C457.363 339.159 462.977 345.567 462.708 349.709C462.588 351.386 462.977 352.703 461.599 351.915C460.22 351.126 458.602 346.924 455.525 345.567C452.448 344.209 445.306 342.263 442.539 340.576C439.771 338.89 435.356 332.851 435.356 332.851L399.194 300.432C399.194 300.432 395.608 296.849 395.048 294.913L394.499 292.986C394.499 292.986 389.504 289.992 388.145 288.295C386.787 286.598 386.217 283.055 386.217 283.055L378.765 274.481L383.76 227.3M306.421 330.266L336.819 319.796L338.347 318.009L309.737 327.96L306.421 330.266Z" stroke="#263238" stroke-width="1.02262" stroke-linecap="round" stroke-linejoin="round"/>
<path d="M380.913 238.25L378.765 274.481L386.217 283.035C386.217 283.035 386.767 286.618 388.145 288.275C389.524 289.932 394.499 292.966 394.499 292.966L395.048 294.893C395.608 296.829 399.194 300.412 399.194 300.412L404.608 305.283C406.806 301.001 412.04 293.306 421.491 292.028C421.241 290.641 420.372 285.65 419.902 281.648C419.353 276.967 413.549 276.657 413.549 276.657C413.549 276.657 413.279 273.892 413.279 270.309C413.279 266.726 408.284 263.961 406.097 259.27C403.909 254.579 395.677 222.919 394.019 217.12C392.361 211.321 381.392 207.608 381.392 207.608" fill="white"/>
<path d="M380.913 238.25L378.765 274.481L386.217 283.035C386.217 283.035 386.767 286.618 388.145 288.275C389.524 289.932 394.499 292.966 394.499 292.966L395.048 294.893C395.608 296.829 399.194 300.412 399.194 300.412L404.608 305.283C406.806 301.001 412.04 293.306 421.491 292.028C421.241 290.641 420.372 285.65 419.902 281.648C419.353 276.967 413.549 276.657 413.549 276.657C413.549 276.657 413.279 273.892 413.279 270.309C413.279 266.726 408.284 263.961 406.097 259.27C403.909 254.579 395.677 222.919 394.019 217.12C392.361 211.321 381.392 207.608 381.392 207.608" stroke="#263238" stroke-width="1.02262" stroke-linecap="round" stroke-linejoin="round"/>
<path d="M380.483 249.209L384.12 280.22L378.765 274.501L380.483 249.209Z" fill="#263238"/>
<path d="M406.127 281.568C406.919 281.011 407.739 280.495 408.584 280.021M397.266 291.609C398.771 288.617 400.848 285.948 403.379 283.754M403.28 276.667C404.485 276.48 405.706 276.4 406.926 276.428M389.804 283.324C392.488 280.925 395.598 279.05 398.974 277.795M458.842 341.265C458.842 341.265 455.845 337.123 451.659 336.853M460.22 332.162C460.22 332.162 463.537 332.991 467.672 338.231C471.808 343.471 472.917 351.206 472.917 351.206M468.122 331.054C468.122 331.054 474.305 336.045 475.404 340.716C476.503 345.387 477.892 351.745 477.892 351.745M477.063 338.78C476.297 335.636 474.989 332.651 473.197 329.956" stroke="#263238" stroke-width="1.02262" stroke-linecap="round" stroke-linejoin="round"/>
<path d="M560.725 349.809H484.515L505.503 280.28H581.713L560.725 349.809Z" fill="white" stroke="#263238" stroke-width="1.02262" stroke-linecap="round" stroke-linejoin="round"/>
<path d="M560.725 349.809L578.507 290.92C556 293.695 542.764 312.22 521.946 332.532C508.849 345.317 499.749 348.99 494.415 349.829L560.725 349.809Z" fill="#263238" stroke="#263238" stroke-width="1.02262" stroke-linecap="round" stroke-linejoin="round"/>
<path d="M536.151 317.52C539.483 317.52 542.185 314.928 542.185 311.731C542.185 308.534 539.483 305.942 536.151 305.942C532.819 305.942 530.117 308.534 530.117 311.731C530.117 314.928 532.819 317.52 536.151 317.52Z" fill="white" stroke="#263238" stroke-width="1.02262" stroke-linecap="round" stroke-linejoin="round"/>
<path d="M419.073 349.529H561.554V353.941H419.073V349.529Z" fill="white" stroke="#263238" stroke-width="1.02262" stroke-linecap="round" stroke-linejoin="round"/>
<path d="M488.661 349.529H561.555V353.941H488.661V349.529Z" fill="#263238" stroke="#263238" stroke-width="1.02262" stroke-linecap="round" stroke-linejoin="round"/>
<path d="M233.467 337.652H176.356C173.927 337.652 171.597 338.616 169.879 340.332C168.161 342.049 167.196 344.377 167.196 346.804V347.803C167.196 350.23 168.161 352.558 169.879 354.274C171.597 355.991 173.927 356.955 176.356 356.955H233.467C231.613 354.016 230.559 350.644 230.41 347.174C230.536 343.78 231.594 340.486 233.467 337.652Z" fill="white" stroke="#263238" stroke-width="1.02262" stroke-linecap="round" stroke-linejoin="round"/>
<path d="M206.355 337.652H149.244C146.815 337.652 144.485 338.616 142.767 340.332C141.049 342.049 140.084 344.377 140.084 346.804V347.803C140.084 350.23 141.049 352.558 142.767 354.274C144.485 355.991 146.815 356.955 149.244 356.955H206.355C204.501 354.016 203.448 350.644 203.298 347.174C203.425 343.78 204.482 340.486 206.355 337.652Z" fill="white" stroke="#263238" stroke-width="1.02262" stroke-linecap="round" stroke-linejoin="round"/>
<path d="M140.084 346.804V347.803C140.085 349.545 140.583 351.252 141.521 352.721C142.459 354.19 143.797 355.361 145.378 356.097L146.637 356.147V339.059L145.898 338.291C144.184 338.961 142.713 340.132 141.676 341.651C140.639 343.17 140.084 344.966 140.084 346.804Z" fill="white" stroke="#263238" stroke-width="1.02262" stroke-linecap="round" stroke-linejoin="round"/>
<path d="M233.467 337.652H149.244C146.815 337.652 144.485 338.616 142.767 340.332C141.049 342.049 140.084 344.377 140.084 346.804V347.803C140.084 350.23 141.049 352.558 142.767 354.274C144.485 355.991 146.815 356.955 149.244 356.955H233.467" stroke="#263238" stroke-width="3.06785" stroke-linecap="round" stroke-linejoin="round"/>
<path d="M146.927 341.914H174.858M178.854 344.479H183.129M152.341 344.479H175.147M146.927 350.168H161.182M189.682 353.302H192.819M169.733 353.302H187.115M152.341 353.302H164.598" stroke="#263238" stroke-width="1.02262" stroke-linecap="round" stroke-linejoin="round"/>
<path d="M176.916 337.652H96.899C94.4703 337.654 92.1418 338.62 90.4245 340.335C88.7071 342.051 87.7412 344.378 87.7385 346.804V347.803C87.7385 350.231 88.7033 352.56 90.421 354.278C92.1386 355.996 94.4686 356.963 96.899 356.965H176.916C175.086 354.019 174.053 350.648 173.919 347.184C174.028 343.793 175.064 340.496 176.916 337.652Z" fill="white" stroke="#263238" stroke-width="1.02262" stroke-linecap="round" stroke-linejoin="round"/>
<path d="M128.266 340.686V354.51M128.696 342.852H151.612M128.696 346.305H160.253M138.426 350.188H146.637M157.016 352.783H132.372" stroke="#263238" stroke-width="1.02262" stroke-linecap="round" stroke-linejoin="round"/>
<path d="M124.28 347.813V346.814C124.283 344.386 125.25 342.058 126.97 340.342C128.689 338.626 131.02 337.662 133.451 337.662H96.899C94.4703 337.664 92.1418 338.63 90.4245 340.345C88.7071 342.061 87.7412 344.388 87.7385 346.814V347.813C87.7412 350.239 88.7071 352.566 90.4245 354.282C92.1418 355.997 94.4703 356.963 96.899 356.965H133.431C131.004 356.96 128.678 355.994 126.963 354.278C125.248 352.562 124.283 350.237 124.28 347.813Z" fill="#263238" stroke="#263238" stroke-width="1.02262" stroke-linecap="round" stroke-linejoin="round"/>
<path d="M172.71 337.652H96.899C94.4703 337.654 92.1418 338.62 90.4245 340.335C88.7071 342.051 87.7412 344.378 87.7385 346.804V347.803C87.7385 350.231 88.7033 352.56 90.421 354.278C92.1386 355.996 94.4686 356.963 96.899 356.965H172.69" stroke="#263238" stroke-width="3.06785" stroke-linecap="round" stroke-linejoin="round"/>
<path d="M178.624 337.652H133.671C131.242 337.654 128.913 338.62 127.196 340.335C125.479 342.051 124.513 344.378 124.51 346.804V347.803C124.513 350.229 125.479 352.556 127.196 354.272C128.913 355.987 131.242 356.953 133.671 356.955H178.624" stroke="#263238" stroke-width="3.06785" stroke-linecap="round" stroke-linejoin="round"/>
<path d="M224.386 318.638H167.276C164.846 318.638 162.516 319.602 160.798 321.318C159.08 323.035 158.115 325.363 158.115 327.79V328.789C158.114 329.991 158.35 331.182 158.81 332.293C159.27 333.404 159.944 334.413 160.795 335.263C161.646 336.114 162.657 336.788 163.769 337.247C164.881 337.707 166.072 337.943 167.276 337.941H224.386C222.533 335.002 221.479 331.63 221.329 328.16C221.456 324.766 222.513 321.472 224.386 318.638Z" fill="white" stroke="#263238" stroke-width="1.02262" stroke-linecap="round" stroke-linejoin="round"/>
<path d="M197.274 318.638H140.164C137.734 318.638 135.404 319.602 133.686 321.318C131.969 323.035 131.003 325.363 131.003 327.79V328.789C131.002 329.991 131.238 331.182 131.698 332.293C132.158 333.404 132.833 334.413 133.684 335.263C134.534 336.114 135.545 336.788 136.657 337.247C137.769 337.707 138.961 337.943 140.164 337.941H197.274C195.421 335.002 194.367 331.63 194.217 328.16C194.344 324.766 195.401 321.472 197.274 318.638Z" fill="white" stroke="#263238" stroke-width="1.02262" stroke-linecap="round" stroke-linejoin="round"/>
<path d="M131.003 327.79V328.789C131.004 330.531 131.503 332.238 132.441 333.707C133.378 335.176 134.717 336.347 136.298 337.083H137.557V320.055L136.817 319.276C135.104 319.947 133.632 321.118 132.595 322.637C131.558 324.156 131.003 325.952 131.003 327.79Z" fill="white" stroke="#263238" stroke-width="1.02262" stroke-linecap="round" stroke-linejoin="round"/>
<path d="M224.386 318.638H140.164C137.734 318.638 135.404 319.602 133.686 321.318C131.969 323.035 131.003 325.363 131.003 327.79V328.789C131.002 329.991 131.238 331.182 131.698 332.293C132.158 333.404 132.833 334.413 133.684 335.263C134.534 336.114 135.545 336.788 136.657 337.247C137.769 337.707 138.961 337.943 140.164 337.941H224.386" stroke="#263238" stroke-width="3.06785" stroke-linecap="round" stroke-linejoin="round"/>
<path d="M137.846 322.9H165.777M169.773 325.465H174.049M143.261 325.465H166.067M137.846 331.164H152.091M180.602 334.298H183.738M160.653 334.298H178.034M143.261 334.298H155.518M450.061 267.415H430.551C430.154 267.415 429.773 267.257 429.492 266.976C429.211 266.695 429.053 266.314 429.053 265.917V260.248C429.055 259.853 429.214 259.474 429.495 259.196C429.776 258.917 430.155 258.761 430.551 258.761H456.714C457.11 258.761 457.489 258.917 457.77 259.196C458.051 259.474 458.21 259.853 458.212 260.248V262.504" stroke="#263238" stroke-width="1.02262" stroke-linecap="round" stroke-linejoin="round"/>
<path d="M449.871 276.637V264.5C449.884 263.979 450.1 263.484 450.474 263.121C450.847 262.757 451.348 262.553 451.869 262.554H477.782C478.295 262.566 478.783 262.775 479.145 263.138C479.508 263.5 479.717 263.988 479.73 264.5V279.023M479.68 290.99V306.111C479.667 306.624 479.458 307.111 479.095 307.474C478.733 307.836 478.245 308.045 477.732 308.058H451.819C451.298 308.058 450.797 307.854 450.424 307.491C450.05 307.127 449.834 306.632 449.821 306.111V279.552M451.719 269.65H477.822M464.186 277.525H477.822M451.719 277.525H462.058M451.719 285.39H477.822M473.147 293.256H477.822M451.719 293.256H470.789M451.719 301.121H477.822M434.307 262.893H448.532M247.532 113.336H223.427C222.937 113.336 222.467 113.141 222.12 112.795C221.774 112.449 221.579 111.979 221.579 111.489V104.502C221.579 104.013 221.774 103.543 222.12 103.197C222.467 102.85 222.937 102.656 223.427 102.656H255.733C256.224 102.656 256.694 102.85 257.04 103.197C257.387 103.543 257.581 104.013 257.581 104.502V107.247" stroke="#263238" stroke-width="1.02262" stroke-linecap="round" stroke-linejoin="round"/>
<path d="M247.302 124.764V109.792C247.305 109.158 247.558 108.55 248.007 108.101C248.456 107.653 249.065 107.4 249.7 107.397H281.666C282.302 107.397 282.912 107.649 283.362 108.099C283.811 108.548 284.064 109.157 284.064 109.792V127.758M284.094 142.431V161.105C284.095 161.42 284.034 161.732 283.914 162.024C283.794 162.315 283.617 162.58 283.395 162.802C283.172 163.025 282.907 163.201 282.615 163.321C282.324 163.441 282.011 163.502 281.696 163.501H249.74C249.104 163.501 248.494 163.249 248.044 162.799C247.595 162.35 247.342 161.741 247.342 161.105V128.307M249.58 116.101H281.806M264.974 125.812H281.806M249.58 125.812H262.346M249.58 135.524H281.806M276.032 145.235H281.806M249.58 145.235H273.125M249.58 154.947H281.806M228.092 107.746H245.654" stroke="#263238" stroke-width="1.02262" stroke-linecap="round" stroke-linejoin="round"/>
<path d="M288.889 143.399C287.506 143.399 286.177 142.862 285.183 141.902L281.706 138.498C281.508 138.299 281.382 138.039 281.352 137.76C281.321 137.48 281.386 137.199 281.536 136.961C281.631 136.804 281.761 136.67 281.915 136.57C282.069 136.47 282.243 136.406 282.426 136.382C282.606 136.361 282.789 136.38 282.961 136.437C283.134 136.494 283.292 136.587 283.425 136.712L284.104 137.35L280.707 130.244C280.628 130.063 280.588 129.867 280.588 129.67C280.588 129.472 280.628 129.277 280.707 129.096C280.81 128.828 280.989 128.595 281.222 128.428C281.455 128.26 281.733 128.164 282.02 128.153C282.307 128.141 282.591 128.214 282.837 128.362C283.083 128.51 283.281 128.727 283.405 128.986L284.703 131.502C284.939 131.217 285.268 131.026 285.632 130.963C286.119 130.925 286.602 131.067 286.991 131.362C287.11 131.203 287.259 131.07 287.431 130.97C287.603 130.871 287.793 130.807 287.99 130.783C288.392 130.747 288.795 130.842 289.139 131.052C289.221 130.861 289.362 130.7 289.542 130.592C289.721 130.485 289.929 130.436 290.138 130.454C290.372 130.471 290.597 130.547 290.795 130.675C290.992 130.802 291.154 130.976 291.266 131.182L293.704 135.664C294.115 136.475 294.311 137.378 294.274 138.287C294.236 139.195 293.967 140.079 293.492 140.854C293.016 141.63 292.35 142.27 291.556 142.716C290.763 143.161 289.869 143.396 288.959 143.399H288.889ZM282.625 136.931H282.535C282.436 136.947 282.341 136.984 282.257 137.039C282.172 137.094 282.101 137.166 282.046 137.251C281.962 137.381 281.924 137.536 281.941 137.691C281.957 137.845 282.026 137.989 282.136 138.099L285.572 141.503C286.382 142.287 287.445 142.759 288.57 142.834C289.696 142.909 290.811 142.583 291.719 141.913C292.626 141.244 293.266 140.274 293.526 139.178C293.785 138.081 293.646 136.928 293.134 135.923L290.697 131.452C290.631 131.327 290.536 131.221 290.419 131.143C290.302 131.064 290.168 131.016 290.028 131.002C289.808 131.002 289.558 131.002 289.478 131.551L289.398 132.06L289.019 131.711C288.73 131.456 288.355 131.321 287.97 131.332C287.81 131.365 287.661 131.434 287.531 131.532C287.402 131.631 287.295 131.756 287.221 131.901L287.041 132.19L286.791 131.961C286.485 131.668 286.076 131.506 285.652 131.511C285.475 131.553 285.309 131.635 285.169 131.751C285.029 131.867 284.917 132.014 284.843 132.18L284.573 132.639L282.845 129.226C282.747 129.021 282.576 128.859 282.366 128.772C282.156 128.686 281.921 128.68 281.706 128.757C281.593 128.806 281.49 128.877 281.405 128.966C281.319 129.056 281.252 129.161 281.207 129.276C281.12 129.504 281.12 129.756 281.207 129.984L285.902 139.716L283.105 137.091C282.971 136.979 282.8 136.922 282.625 136.931Z" fill="#263238"/>
<path d="M285.882 135.324C285.828 135.324 285.776 135.308 285.731 135.278C285.687 135.247 285.652 135.204 285.632 135.155L284.353 132.16C284.327 132.093 284.328 132.017 284.355 131.95C284.383 131.883 284.436 131.83 284.503 131.801C284.536 131.786 284.571 131.778 284.607 131.777C284.643 131.776 284.679 131.782 284.713 131.795C284.746 131.808 284.777 131.828 284.802 131.853C284.828 131.878 284.849 131.908 284.863 131.941L286.142 134.935C286.168 135.003 286.168 135.078 286.14 135.145C286.112 135.212 286.059 135.266 285.992 135.294C285.959 135.315 285.921 135.325 285.882 135.324ZM288.11 134.665C288.055 134.664 288.002 134.647 287.956 134.617C287.91 134.587 287.874 134.545 287.85 134.496L286.701 131.861C286.674 131.793 286.675 131.718 286.703 131.651C286.731 131.584 286.784 131.53 286.851 131.501C286.884 131.487 286.92 131.479 286.957 131.479C286.993 131.479 287.029 131.486 287.063 131.5C287.096 131.514 287.127 131.534 287.152 131.56C287.178 131.586 287.197 131.617 287.211 131.651L288.319 134.276C288.334 134.31 288.342 134.347 288.342 134.384C288.343 134.421 288.336 134.458 288.322 134.492C288.308 134.527 288.287 134.558 288.261 134.584C288.235 134.61 288.204 134.631 288.17 134.645L288.11 134.665ZM290.287 134.087C290.235 134.086 290.184 134.071 290.14 134.042C290.095 134.014 290.06 133.974 290.038 133.927L288.969 131.621C288.952 131.589 288.942 131.554 288.94 131.519C288.937 131.483 288.942 131.447 288.955 131.413C288.967 131.379 288.986 131.348 289.011 131.322C289.036 131.296 289.065 131.276 289.099 131.262C289.131 131.245 289.167 131.235 289.203 131.233C289.24 131.23 289.277 131.235 289.311 131.247C289.346 131.259 289.378 131.279 289.405 131.303C289.432 131.328 289.453 131.358 289.468 131.392L290.537 133.697C290.554 133.73 290.564 133.766 290.566 133.802C290.569 133.839 290.564 133.875 290.552 133.91C290.539 133.944 290.52 133.976 290.496 134.003C290.471 134.03 290.441 134.052 290.407 134.067L290.287 134.087Z" fill="#263238"/>
<path d="M264.783 99.3744L267.778 96.3819L270.773 99.3744L267.778 102.367L264.783 99.3744Z" stroke="#263238" stroke-width="1.02262" stroke-linecap="round" stroke-linejoin="round"/>
<path d="M241.928 123.766C241.926 123.328 241.794 122.901 241.549 122.538C241.304 122.175 240.957 121.892 240.552 121.726C240.146 121.56 239.701 121.517 239.271 121.604C238.842 121.691 238.448 121.903 238.138 122.213C237.829 122.523 237.619 122.918 237.534 123.347C237.45 123.777 237.494 124.222 237.662 124.626C237.83 125.031 238.115 125.376 238.479 125.619C238.844 125.862 239.272 125.992 239.71 125.992C240.002 125.992 240.291 125.934 240.561 125.822C240.831 125.71 241.076 125.546 241.282 125.339C241.488 125.133 241.651 124.887 241.762 124.617C241.873 124.347 241.929 124.058 241.928 123.766Z" stroke="#263238" stroke-width="1.02262" stroke-linecap="round" stroke-linejoin="round"/>
<path d="M535.392 59.9056L543.989 51.3164L552.585 59.9056L543.989 68.4949L535.392 59.9056Z" stroke="#263238" stroke-width="1.02262" stroke-linecap="round" stroke-linejoin="round"/>
<path d="M238.916 295.854L247.512 287.265L256.109 295.855L247.512 304.444L238.916 295.854Z" stroke="#263238" stroke-width="1.02262" stroke-linecap="round" stroke-linejoin="round"/>
<path d="M201.457 279.132L210.054 270.542L218.65 279.132L210.054 287.721L201.457 279.132Z" stroke="#263238" stroke-width="1.02262" stroke-linecap="round" stroke-linejoin="round"/>
<path d="M523.315 71.7429L528.005 67.0566L532.695 71.7429L528.005 76.4293L523.315 71.7429Z" stroke="#263238" stroke-width="1.02262" stroke-linecap="round" stroke-linejoin="round"/>
<path d="M529.568 264.899C531.488 264.899 533.044 263.344 533.044 261.426C533.044 259.508 531.488 257.952 529.568 257.952C527.648 257.952 526.091 259.508 526.091 261.426C526.091 263.344 527.648 264.899 529.568 264.899Z" stroke="#263238" stroke-width="1.02262" stroke-linecap="round" stroke-linejoin="round"/>
<path d="M241.348 234.816C243.268 234.816 244.825 233.261 244.825 231.343C244.825 229.424 243.268 227.869 241.348 227.869C239.428 227.869 237.872 229.424 237.872 231.343C237.872 233.261 239.428 234.816 241.348 234.816Z" stroke="#263238" stroke-width="1.02262" stroke-linecap="round" stroke-linejoin="round"/>
<path d="M394.619 70.317C396.539 70.317 398.095 68.7619 398.095 66.8436C398.095 64.9252 396.539 63.3701 394.619 63.3701C392.699 63.3701 391.142 64.9252 391.142 66.8436C391.142 68.7619 392.699 70.317 394.619 70.317Z" stroke="#263238" stroke-width="1.02262" stroke-linecap="round" stroke-linejoin="round"/>
<path d="M412.33 98.2842H580.814V250.137H412.33V98.2842Z" fill="#0F7CFF"/>
<path d="M421.84 90.479H591.653V242.991H421.84V90.479Z" fill="white" stroke="#263238" stroke-width="1.02262" stroke-linecap="round" stroke-linejoin="round"/>
<path d="M466.574 90.479H591.663V111.17H466.574V90.479Z" fill="#263238" stroke="#263238" stroke-width="1.02262" stroke-linecap="round" stroke-linejoin="round"/>
<path d="M421.84 90.479H591.653V101.239H421.84V90.479Z" fill="white" stroke="#263238" stroke-width="1.02262" stroke-linecap="round" stroke-linejoin="round"/>
<path d="M429.292 126.072H532.844V192.287H429.292V126.072Z" fill="#263238" stroke="#263238" stroke-width="1.02262" stroke-linecap="round" stroke-linejoin="round"/>
<path d="M429.292 184.91H532.844V192.286H429.292V184.91Z" fill="white" stroke="#263238" stroke-width="1.02262" stroke-linecap="round" stroke-linejoin="round"/>
<path d="M429.292 187.516H532.844V189.671H429.292V187.516Z" fill="white" stroke="#263238" stroke-width="1.02262" stroke-linecap="round" stroke-linejoin="round"/>
<path d="M492.241 166.772C496.641 159.601 494.389 150.223 487.212 145.826C480.034 141.43 470.648 143.679 466.248 150.851C461.848 158.023 464.1 167.4 471.277 171.797C478.455 176.193 487.841 173.944 492.241 166.772Z" fill="#0F7CFF"/>
<path d="M488.101 159.179L474.835 151.524V166.835L488.101 159.179Z" fill="white"/>
<path d="M542.135 126.072H583.022V152.222H542.135V126.072Z" fill="#263238" stroke="#263238" stroke-width="1.02262" stroke-linecap="round" stroke-linejoin="round"/>
<path d="M542.135 149.298H583.022V152.212H542.135V149.298Z" fill="white" stroke="#263238" stroke-width="1.02262" stroke-linecap="round" stroke-linejoin="round"/>
<path d="M542.135 150.336H583.022V151.184H542.135V150.336Z" fill="white" stroke="#263238" stroke-width="1.02262" stroke-linecap="round" stroke-linejoin="round"/>
<path d="M561.874 145.036C565.201 145.036 567.898 142.341 567.898 139.017C567.898 135.693 565.201 132.999 561.874 132.999C558.547 132.999 555.85 135.693 555.85 139.017C555.85 142.341 558.547 145.036 561.874 145.036Z" fill="#0F7CFF"/>
<path d="M565.361 139.147L560.126 136.123V142.171L565.361 139.147Z" fill="white"/>
<path d="M542.135 154.797H583.022V180.948H542.135V154.797Z" fill="#263238" stroke="#263238" stroke-width="1.02262" stroke-linecap="round" stroke-linejoin="round"/>
<path d="M542.135 178.033H583.022V180.948H542.135V178.033Z" fill="white" stroke="#263238" stroke-width="1.02262" stroke-linecap="round" stroke-linejoin="round"/>
<path d="M542.135 179.062H583.022V179.91H542.135V179.062Z" fill="white" stroke="#263238" stroke-width="1.02262" stroke-linecap="round" stroke-linejoin="round"/>
<path d="M567.888 167.743C567.888 166.559 567.536 165.401 566.878 164.416C566.219 163.431 565.283 162.663 564.188 162.21C563.093 161.757 561.887 161.638 560.725 161.869C559.562 162.1 558.494 162.671 557.656 163.508C556.818 164.346 556.247 165.413 556.016 166.575C555.784 167.736 555.903 168.94 556.357 170.035C556.81 171.129 557.579 172.064 558.564 172.722C559.55 173.38 560.709 173.732 561.894 173.732C563.484 173.732 565.008 173.101 566.132 171.978C567.256 170.854 567.888 169.331 567.888 167.743Z" fill="#0F7CFF"/>
<path d="M565.361 167.873L560.126 164.848V170.897L565.361 167.873Z" fill="white"/>
<path d="M542.135 183.533H583.022V209.684H542.135V183.533Z" fill="#263238" stroke="#263238" stroke-width="1.02262" stroke-linecap="round" stroke-linejoin="round"/>
<path d="M542.135 206.769H583.022V209.684H542.135V206.769Z" fill="white" stroke="#263238" stroke-width="1.02262" stroke-linecap="round" stroke-linejoin="round"/>
<path d="M542.135 207.797H583.022V208.646H542.135V207.797Z" fill="white" stroke="#263238" stroke-width="1.02262" stroke-linecap="round" stroke-linejoin="round"/>
<path d="M567.888 196.479C567.888 195.294 567.536 194.136 566.878 193.151C566.219 192.167 565.283 191.399 564.188 190.946C563.093 190.492 561.887 190.374 560.725 190.605C559.562 190.836 558.494 191.406 557.656 192.244C556.818 193.081 556.247 194.149 556.016 195.31C555.784 196.472 555.903 197.676 556.357 198.77C556.81 199.865 557.579 200.8 558.564 201.458C559.55 202.116 560.709 202.467 561.894 202.467C563.484 202.467 565.008 201.836 566.132 200.713C567.256 199.59 567.888 198.067 567.888 196.479Z" fill="#0F7CFF"/>
<path d="M565.361 196.608L560.126 193.584V199.633L565.361 196.608Z" fill="white"/>
<path d="M542.135 212.259H583.022V238.409H542.135V212.259Z" fill="#263238" stroke="#263238" stroke-width="1.02262" stroke-linecap="round" stroke-linejoin="round"/>
<path d="M542.135 235.495H583.022V238.409H542.135V235.495Z" fill="white" stroke="#263238" stroke-width="1.02262" stroke-linecap="round" stroke-linejoin="round"/>
<path d="M542.135 236.523H583.022V237.371H542.135V236.523Z" fill="white" stroke="#263238" stroke-width="1.02262" stroke-linecap="round" stroke-linejoin="round"/>
<path d="M567.888 225.204C567.888 224.02 567.536 222.862 566.878 221.877C566.219 220.892 565.283 220.125 564.188 219.672C563.093 219.218 561.887 219.1 560.725 219.331C559.562 219.562 558.494 220.132 557.656 220.97C556.818 221.807 556.247 222.874 556.016 224.036C555.784 225.198 555.903 226.402 556.357 227.496C556.81 228.59 557.579 229.526 558.564 230.184C559.55 230.842 560.709 231.193 561.894 231.193C563.484 231.193 565.008 230.562 566.132 229.439C567.256 228.316 567.888 226.793 567.888 225.204Z" fill="#0F7CFF"/>
<path d="M565.361 225.334L560.126 222.32V228.358L565.361 225.334Z" fill="white"/>
<path d="M430.102 199.273H509.389M430.102 217.988H477.202M430.102 225.394H477.202M430.102 232.79H477.202M486.243 217.988H533.354M486.243 225.394H533.354M486.243 232.79H533.354M430.102 205.372H530.307" stroke="#263238" stroke-width="1.02262" stroke-linecap="round" stroke-linejoin="round"/>
<path d="M585.47 126.112H589.555V239.377H585.47V126.112Z" fill="#A2A7A9"/>
<path d="M585.47 153.59H589.555V168.072H585.47V153.59Z" fill="#263238"/>
<path d="M547.809 243.2V280.51" stroke="#263238" stroke-width="1.02262" stroke-linecap="round" stroke-linejoin="round"/>
<path d="M488.661 349.529L488.94 349.809H489.59C489.272 349.744 488.961 349.65 488.661 349.529Z" fill="#263238" stroke="#263238" stroke-width="1.02262" stroke-linecap="round" stroke-linejoin="round"/>
</svg>
