<svg width="29" height="28" viewBox="0 0 29 28" fill="none" xmlns="http://www.w3.org/2000/svg">
<path d="M27.574 11.3887H26.5V11.3333H14.5V16.6667H22.0353C20.936 19.7713 17.982 22 14.5 22C10.082 22 6.49996 18.418 6.49996 14C6.49996 9.58199 10.082 5.99999 14.5 5.99999C16.5393 5.99999 18.3946 6.76932 19.8073 8.02599L23.5786 4.25466C21.1973 2.03532 18.012 0.666656 14.5 0.666656C7.13663 0.666656 1.16663 6.63666 1.16663 14C1.16663 21.3633 7.13663 27.3333 14.5 27.3333C21.8633 27.3333 27.8333 21.3633 27.8333 14C27.8333 13.106 27.7413 12.2333 27.574 11.3887Z" fill="#FFC107"/>
<path d="M2.70398 7.79399L7.08465 11.0067C8.26998 8.07199 11.1406 5.99999 14.5 5.99999C16.5393 5.99999 18.3946 6.76932 19.8073 8.02599L23.5786 4.25466C21.1973 2.03532 18.012 0.666656 14.5 0.666656C9.37865 0.666656 4.93731 3.55799 2.70398 7.79399Z" fill="#FF3D00"/>
<path d="M14.5 27.3333C17.944 27.3333 21.0733 26.0153 23.4393 23.872L19.3127 20.38C17.929 21.4323 16.2383 22.0014 14.5 22C11.032 22 8.08734 19.7887 6.978 16.7027L2.63 20.0527C4.83667 24.3707 9.31801 27.3333 14.5 27.3333Z" fill="#4CAF50"/>
<path d="M27.574 11.3887H26.5V11.3333H14.5V16.6667H22.0353C21.5095 18.1443 20.5622 19.4355 19.3107 20.3807L19.3127 20.3793L23.4393 23.8713C23.1473 24.1367 27.8333 20.6667 27.8333 14C27.8333 13.106 27.7413 12.2333 27.574 11.3887Z" fill="#1976D2"/>
</svg>
