<svg width="395" height="61" viewBox="0 0 395 61" fill="none" xmlns="http://www.w3.org/2000/svg">
<mask id="mask0_111_4690" style="mask-type:alpha" maskUnits="userSpaceOnUse" x="0" y="21" width="394" height="24">
<path fill-rule="evenodd" clip-rule="evenodd" d="M8.80888 34.0163C6.21307 33.9722 3.62112 33.9136 1.02987 33.8439C0.523606 33.83 0.101935 34.2309 0.0887174 34.739C0.0754996 35.2471 0.475794 35.6709 0.982057 35.6848C3.31462 35.7454 5.64764 35.7985 7.9793 35.8443C8.10937 35.9337 8.37069 36.0647 8.81822 36.1412C22.7644 38.4375 37.8386 36.7048 52.1005 35.7315C65.4707 35.4462 78.8474 34.9622 92.2276 34.3714C90.6334 34.524 89.0397 34.673 87.445 34.8145C87.1132 34.8449 86.2534 34.9265 86.1353 34.9558C85.4597 35.1376 85.4415 35.7191 85.444 35.8668C85.4452 35.9406 85.498 36.7554 86.4114 36.7806C96.2233 37.0424 106.033 36.1683 115.801 35.3762C119.434 35.0809 123.064 34.7781 126.696 34.468C127.959 34.3569 131.245 34.2018 131.699 34.1164C132.186 34.0222 132.375 33.7134 132.448 33.4747C140.328 32.9972 148.217 32.5792 156.108 32.2168C157.653 32.2159 159.195 32.2186 160.738 32.2213C177.551 32.2666 194.36 32.3744 211.173 32.346C201.806 32.7764 192.416 33.2423 183.064 33.8876C181.148 34.0197 179.236 34.2036 177.321 34.3504C176.275 34.4274 173.569 34.4647 173.188 34.5879C172.621 34.7766 172.531 35.2135 172.516 35.4301C172.508 35.5624 172.549 36.2989 173.503 36.4816C191.197 39.884 209.25 40.6097 227.194 41.5497C231.914 41.796 236.634 42.0607 241.351 42.34C230.079 42.5306 218.693 42.1166 207.44 41.8402C207.338 41.7451 207.192 41.6547 206.982 41.5933C206.673 41.4998 205.717 41.3797 203.976 41.25C203.601 41.2224 203.262 41.4256 203.097 41.7397C200.423 41.6868 197.756 41.6455 195.102 41.6272C186.411 41.566 177.719 41.8146 169.028 41.794L167.061 41.7716L166.651 41.7676C165.145 41.7414 163.302 41.7011 162.077 41.6745C161.371 41.6551 159.532 41.6483 159.278 41.6542C158.511 41.6789 158.38 42.3897 158.375 42.4226C158.372 42.4408 158.383 43.4778 159.432 43.5043C160.134 43.5234 162.784 43.56 166.5 43.6056C167.433 43.621 168.252 43.6327 168.741 43.6344L169.116 43.6363C180.997 43.7648 200.037 43.9008 205.428 43.633C222.967 44.0309 240.862 44.872 258.183 43.3565C258.751 43.3043 259.001 43.1211 259.049 43.08C259.318 42.8427 259.374 42.5733 259.363 42.3403C259.357 42.1924 259.283 41.5938 258.564 41.4557C258.059 41.357 254.417 41.2867 253.016 41.2008C244.442 40.6751 235.867 40.1603 227.288 39.7118C211.82 38.9004 196.269 38.2571 180.938 35.8981C181.689 35.8355 182.439 35.7765 183.191 35.7249C192.673 35.0696 202.195 34.5973 211.69 34.164C241.179 32.8175 271.353 34.635 300.706 32.1366C301.308 32.0865 301.577 31.9046 301.629 31.8636C301.913 31.6236 301.969 31.3432 301.958 31.1064C301.951 30.9622 301.871 30.3559 301.138 30.2206C300.534 30.1082 296.181 30.0403 294.505 29.948C287.813 29.5794 281.115 29.2067 274.417 28.9963C263.359 28.6511 252.277 28.4446 241.198 28.3932C240.253 28.1778 239.273 27.9788 238.261 27.7961C245.732 27.6687 253.199 27.6036 260.663 27.6232C291.26 27.6937 321.85 28.2616 352.434 29.0541C365.101 29.3841 377.947 30.4225 390.619 30.2143C391.068 30.2061 392.062 30.2992 392.552 30.2899C392.832 30.2857 393.037 30.2361 393.135 30.1981C393.543 30.0323 393.675 29.7347 393.719 29.5015C393.757 29.3195 393.827 28.7229 393.072 28.387C376.842 21.1614 351.062 23.5561 334.178 22.8203C265.232 19.8163 196.24 21.6001 127.358 25.246C99.8183 26.7023 72.3478 28.1813 44.8646 30.5115C35.1115 31.3377 25.3456 32.0046 15.6423 33.3134C14.3758 33.487 11.6982 33.6625 9.98269 33.848C9.52085 33.8996 9.11885 33.9587 8.80888 34.0163ZM387.894 28.399C371.877 23.3335 349.326 25.3224 334.099 24.6592C265.213 21.6591 196.279 23.4392 127.456 27.0815C99.9355 28.539 72.4846 30.0157 45.0201 32.3471C38.0334 32.937 31.0395 33.449 24.068 34.1726C33.3784 34.1922 42.6924 34.0904 52.0198 33.8934C53.9608 33.7593 55.8884 33.639 57.7959 33.547C81.2236 32.407 104.704 31.2999 128.183 30.746C135.95 30.3313 143.717 29.9055 151.49 29.4839C166.537 28.1477 187.077 26.2553 205.974 25.936C212.474 25.8276 218.781 25.906 224.608 26.2599C236.636 25.9331 248.654 25.7532 260.666 25.7831C291.278 25.8509 321.881 26.4233 352.483 27.2169C364.225 27.521 376.119 28.4396 387.894 28.399ZM241.016 30.2329C233.917 30.2034 226.82 30.2404 219.733 30.3445C216.579 30.3937 213.424 30.4467 210.269 30.5069C211.992 30.5064 213.715 30.5022 215.438 30.4942C223.525 30.4688 231.632 30.4557 239.719 30.2754C240.121 30.2642 240.66 30.2765 241.263 30.293L241.027 30.2373L241.016 30.2329ZM284.746 31.2679C281.285 31.0984 277.823 30.9437 274.361 30.8367C265.373 30.5575 256.37 30.3657 247.365 30.2772C247.581 30.4163 247.695 30.5491 247.747 30.6336C247.901 30.872 247.925 31.1059 247.89 31.3175C247.869 31.4489 247.819 31.6044 247.708 31.7522C260.076 31.7459 272.458 31.7662 284.746 31.2679ZM228.831 28.4069C227.475 28.2871 226.086 28.1836 224.668 28.0966C217.636 28.289 210.603 28.5256 203.578 28.7996C208.951 28.6856 214.329 28.5867 219.704 28.506C222.745 28.4606 225.788 28.4264 228.831 28.4069Z" fill="#323EFB"/>
</mask>
<g mask="url(#mask0_111_4690)">
<rect x="2.27411" width="392.54" height="36.11" transform="rotate(3.65 2.27411 0)" fill="#323EFB"/>
</g>
</svg>
