<svg width="500" height="500" viewBox="0 0 500 500" fill="none" xmlns="http://www.w3.org/2000/svg">
<path d="M461.12 261C456.17 303 437 351.8 398.71 374.22C340.87 408.11 345.71 460.22 232.8 482.89C216.334 486.276 199.549 487.862 182.74 487.62C174.516 487.474 166.31 486.806 158.17 485.62C86.4001 475.17 38.1101 425.29 20.4001 365.08C-2.91987 285.89 43.6401 234.08 74.4901 202.81C105.34 171.54 128 74.2501 238.77 51.1001C255.679 47.5035 272.946 45.8661 290.23 46.2201C329.66 47.2201 372.66 60.1301 402.42 87.1601C404.66 89.1601 406.837 91.2601 408.95 93.4601C450.31 135.92 467.89 203.8 461.12 261Z" fill="#407BFF"/>
<path opacity="0.7" d="M461.12 261C456.17 303 437 351.8 398.71 374.22C340.87 408.11 345.71 460.22 232.8 482.89C216.334 486.276 199.549 487.862 182.74 487.62C174.516 487.474 166.31 486.806 158.17 485.62C86.4001 475.17 38.1101 425.29 20.4001 365.08C-2.91987 285.89 43.6401 234.08 74.4901 202.81C105.34 171.54 128 74.2501 238.77 51.1001C255.679 47.5035 272.946 45.8661 290.23 46.2201C329.66 47.2201 372.66 60.1301 402.42 87.1601C404.66 89.1601 406.837 91.2601 408.95 93.4601C450.31 135.92 467.89 203.8 461.12 261Z" fill="white"/>
<path d="M488.6 444.11H14.2002" stroke="#263238" stroke-linecap="round" stroke-linejoin="round"/>
<g opacity="0.3">
<path d="M28.3401 329.88C32.1801 331.55 41.5801 331.34 41.5801 331.34C41.5801 331.34 39.5801 325.19 39.3901 324.82C37.3301 320.51 30.8101 313.39 25.5101 314.11C24.637 314.253 23.8036 314.577 23.0637 315.062C22.3237 315.547 21.6936 316.182 21.2139 316.925C20.7343 317.669 20.4159 318.504 20.2792 319.379C20.1424 320.253 20.1905 321.146 20.4201 322C21.3101 325.72 25.0701 328.45 28.3401 329.88Z" fill="black"/>
<path d="M31.5903 357.08C35.5903 357.66 43.9503 355.23 44.5903 355.08C45.9788 359.862 47.6859 364.546 49.7003 369.1C50.8603 371.77 52.1003 374.43 53.3803 377.1C52.6203 375.98 51.9203 374.99 51.8103 374.86C48.6903 371.24 40.5203 366.1 35.6003 368.19C34.792 368.56 34.0707 369.097 33.4831 369.764C32.8956 370.432 32.4551 371.215 32.1901 372.064C31.9251 372.913 31.8415 373.808 31.945 374.691C32.0484 375.574 32.3364 376.425 32.7903 377.19C34.6103 380.5 38.9703 382.13 42.5003 382.65C46.0303 383.17 53.2703 381.24 55.1603 380.71C55.6703 381.71 56.1603 382.71 56.6603 383.71C59.0903 388.54 61.5303 393.35 63.7803 398.15C64.5803 399.83 65.3003 401.53 66.0303 403.22C65.3503 402.22 64.7703 401.39 64.6603 401.22C61.5403 397.61 53.3703 392.47 48.4503 394.56C47.6409 394.929 46.9185 395.465 46.33 396.132C45.7416 396.799 45.3004 397.583 45.0353 398.432C44.7702 399.282 44.687 400.177 44.7912 401.061C44.8955 401.944 45.1848 402.796 45.6403 403.56C47.4603 406.88 51.8203 408.51 55.3503 409.03C58.8803 409.55 65.4203 407.8 67.6703 407.18C68.3703 408.93 69.0603 410.69 69.6703 412.42C70.0503 413.61 70.5003 414.73 70.8103 415.95C71.1203 417.17 71.4703 418.33 71.8103 419.51C72.3603 421.79 72.9403 424.15 73.4203 426.39C73.7603 427.95 74.0603 429.44 74.4203 430.95C73.6503 429.25 72.0703 425.95 71.9103 425.72C69.3703 421.67 62.0703 415.35 56.9103 416.67C56.0545 416.913 55.2593 417.333 54.5768 417.903C53.8942 418.474 53.3395 419.181 52.9489 419.981C52.5583 420.78 52.3405 421.652 52.3097 422.541C52.2789 423.43 52.4359 424.316 52.7703 425.14C54.0703 428.69 58.1303 430.97 61.5403 432.01C65.3003 433.16 73.6203 432.11 74.6603 432.01C75.1503 434.5 75.6603 436.92 76.0103 439.21C76.3103 440.91 76.5903 442.54 76.8403 444.11H80.1703C79.8503 442.36 79.5103 440.54 79.1703 438.63C78.6703 436.1 78.0903 433.41 77.4703 430.63C79.9748 429.626 82.4189 428.477 84.7903 427.19C87.5303 430.19 94.5503 433.62 95.4503 434.06C94.4503 436.41 93.5503 438.69 92.6103 440.82C92.1203 441.95 91.6103 443.02 91.1703 444.08H94.6903L95.5403 442.08C96.5403 439.7 97.5403 437.14 98.5403 434.5C99.5403 434.71 107.78 436.38 111.62 435.5C115.1 434.71 119.32 432.74 120.88 429.3C121.274 428.503 121.496 427.632 121.531 426.744C121.566 425.855 121.413 424.969 121.083 424.144C120.753 423.318 120.253 422.572 119.615 421.953C118.977 421.333 118.215 420.855 117.38 420.55C112.31 418.84 104.56 424.6 101.73 428.45C101.56 428.67 100.02 431.34 99.0703 433.03C99.4803 431.95 99.8803 430.91 100.28 429.79C101.09 427.58 101.84 425.36 102.64 422.96C102.99 421.8 103.35 420.61 103.7 419.42C104.05 418.23 104.33 416.96 104.7 415.72C105.39 412.82 105.94 409.85 106.44 406.85C108.37 407.55 115.28 409.95 118.86 409.7C122.44 409.45 126.86 408.14 128.94 404.98C129.451 404.252 129.802 403.425 129.972 402.552C130.141 401.679 130.125 400.781 129.924 399.915C129.723 399.049 129.342 398.235 128.805 397.526C128.269 396.817 127.589 396.229 126.81 395.8C122.06 393.34 113.53 397.87 110.14 401.24C109.93 401.45 107.78 404.14 106.62 405.64C106.9 403.83 107.19 402.03 107.42 400.19C108.08 394.89 108.58 389.49 109.11 384.12C109.27 382.47 109.45 380.83 109.62 379.19C110.3 379.45 118.45 382.48 122.45 382.19C126.01 381.94 130.45 380.63 132.54 377.47C133.051 376.742 133.402 375.915 133.572 375.042C133.741 374.169 133.725 373.271 133.524 372.405C133.323 371.539 132.942 370.725 132.405 370.016C131.869 369.307 131.189 368.719 130.41 368.29C125.66 365.83 117.13 370.35 113.75 373.72C113.49 373.98 110.39 377.86 109.65 378.88C110.03 375.27 110.45 371.67 111 368.14C111.649 363.369 112.611 358.645 113.88 354C114.2 354.12 122.69 357.32 126.79 357C130.35 356.75 134.79 355.44 136.88 352.28C137.391 351.552 137.742 350.725 137.912 349.852C138.081 348.979 138.065 348.081 137.864 347.215C137.663 346.349 137.282 345.535 136.745 344.826C136.209 344.117 135.529 343.529 134.75 343.1C129.99 340.64 121.47 345.17 118.08 348.54C117.82 348.8 114.48 352.97 113.93 353.77C114.01 353.51 114.06 353.22 114.15 352.95C115.611 348.335 117.482 343.861 119.74 339.58C120.96 337.2 122.26 334.99 123.57 332.87C125.09 333.63 132.07 337.02 135.79 337.17C139.35 337.31 143.94 336.5 146.33 333.58C146.918 332.913 147.359 332.13 147.625 331.281C147.89 330.433 147.973 329.538 147.869 328.654C147.766 327.771 147.477 326.92 147.022 326.156C146.568 325.392 145.957 324.732 145.23 324.22C140.77 321.22 131.8 324.82 128.06 327.8C127.86 327.96 125.98 329.8 124.62 331.22C125.23 330.22 125.84 329.28 126.43 328.39C128.67 325.01 130.93 322.07 132.95 319.47C134.11 318 135.19 316.7 136.21 315.47C138.09 315.47 145.66 315.21 148.97 313.65C152.28 312.09 155.9 309.31 156.68 305.65C156.893 304.788 156.922 303.89 156.766 303.016C156.609 302.142 156.271 301.311 155.772 300.576C155.273 299.841 154.625 299.22 153.87 298.752C153.115 298.284 152.27 297.98 151.39 297.86C146.07 297.28 139.74 304.57 137.8 308.94C137.63 309.32 135.68 315.52 135.8 315.52H135.91C134.91 316.66 133.84 317.9 132.7 319.27C130.62 321.83 128.29 324.74 125.97 328.07C123.423 331.638 121.086 335.351 118.97 339.19C116.58 343.478 114.572 347.969 112.97 352.61C112.97 352.61 112.97 352.72 112.92 352.78C112.92 351.21 112.92 346.78 112.84 346.49C112.27 341.8 108.29 333 103 332C102.119 331.863 101.218 331.913 100.357 332.148C99.4965 332.383 98.6952 332.798 98.0059 333.364C97.3165 333.931 96.7548 334.637 96.3574 335.436C95.9601 336.235 95.7362 337.108 95.7003 338C95.3903 341.76 98.1203 345.53 100.78 347.91C103.78 350.59 112.12 353.19 112.78 353.39C111.283 358.152 110.107 363.01 109.26 367.93C108.75 370.79 108.32 373.69 107.93 376.6C107.93 375.25 107.93 374.03 107.86 373.86C107.25 369.12 103.28 360.33 98.0103 359.36C97.1327 359.223 96.236 359.272 95.3786 359.504C94.5212 359.736 93.7223 360.146 93.0338 360.707C92.3452 361.269 91.7825 361.969 91.3822 362.761C90.9819 363.554 90.753 364.423 90.7103 365.31C90.4003 369.08 93.1303 372.85 95.7903 375.22C98.4503 377.59 105.55 379.99 107.43 380.59C107.29 381.71 107.14 382.83 107.01 383.95C106.37 389.32 105.75 394.68 105.01 399.95C104.75 401.8 104.41 403.6 104.09 405.42C104.09 404.21 104.09 403.2 104.02 403.04C103.41 398.3 99.4303 389.51 94.1703 388.54C93.2924 388.401 92.3952 388.449 91.5371 388.681C90.6791 388.912 89.8795 389.322 89.1906 389.884C88.5017 390.445 87.939 391.146 87.5392 391.939C87.1393 392.733 86.9114 393.602 86.8703 394.49C86.5603 398.26 89.2903 402.03 91.9503 404.4C94.6103 406.77 101.03 408.94 103.25 409.66C102.86 411.51 102.47 413.35 102.01 415.12C101.67 416.33 101.42 417.51 101.01 418.69L99.8803 422.21C99.0703 424.42 98.2603 426.71 97.4203 428.84C96.8503 430.33 96.2703 431.74 95.7003 433.16C95.9903 431.33 96.4803 427.72 96.4903 427.42C96.4379 423.203 95.3015 419.071 93.1903 415.42C93.2102 414.951 93.18 414.482 93.1003 414.02C92.9895 413.138 92.6942 412.29 92.2338 411.53C91.7734 410.77 91.1582 410.115 90.4281 409.609C89.698 409.102 88.8694 408.755 87.9962 408.59C87.1231 408.425 86.225 408.445 85.3603 408.65C80.1903 410.03 76.9103 419.11 76.6703 423.88C76.6703 424.16 76.8403 427.23 76.9803 429.17C76.7203 428.04 76.4803 426.95 76.2003 425.79C75.6603 423.5 75.0503 421.24 74.4103 418.79C74.0503 417.62 73.7003 416.44 73.3303 415.25C72.9603 414.06 72.5003 412.85 72.0803 411.63C71.0803 408.84 69.8903 406.05 68.6503 403.27C70.6503 402.79 77.7303 400.99 80.5803 398.8C83.4303 396.61 86.4103 393.08 86.3803 389.3C86.4059 388.411 86.2435 387.527 85.9039 386.705C85.5643 385.883 85.055 385.142 84.4095 384.53C83.7639 383.919 82.9965 383.45 82.1574 383.156C81.3184 382.861 80.4266 382.746 79.5403 382.82C74.2203 383.39 69.6103 391.87 68.6403 396.55C68.5803 396.84 68.2703 400.28 68.1303 402.17C67.3703 400.5 66.6203 398.84 65.7903 397.17C63.4203 392.38 60.8603 387.61 58.3303 382.83C57.5636 381.37 56.8003 379.907 56.0403 378.44C56.7603 378.28 65.2203 376.32 68.4103 373.87C71.2403 371.7 74.2403 368.14 74.2103 364.37C74.2356 363.482 74.0735 362.598 73.7345 361.776C73.3956 360.955 72.8875 360.214 72.2432 359.601C71.5989 358.989 70.8329 358.519 69.995 358.223C69.1572 357.926 68.2663 357.809 67.3803 357.88C62.0503 358.46 57.4403 366.94 56.4703 371.62C56.4003 371.97 55.9503 376.91 55.9003 378.18C54.2303 374.95 52.5903 371.72 51.1003 368.47C49.0682 364.099 47.3245 359.599 45.8803 355C46.2103 354.93 55.0503 352.92 58.3203 350.41C61.1503 348.24 64.1503 344.69 64.1203 340.91C64.1459 340.021 63.9835 339.137 63.6439 338.315C63.3043 337.493 62.7951 336.752 62.1495 336.14C61.5039 335.529 60.7365 335.06 59.8974 334.766C59.0584 334.471 58.1666 334.356 57.2803 334.43C51.9603 335 47.3503 343.48 46.3803 348.16C46.3103 348.53 45.8303 353.85 45.8103 354.81C45.7303 354.55 45.6103 354.28 45.5303 354.01C44.2107 349.353 43.3072 344.587 42.8303 339.77C42.5303 337.11 42.3903 334.56 42.3203 332.07C44.0003 331.86 51.6903 330.84 54.8803 328.91C58.0703 326.98 61.3103 323.85 61.7003 320.1C61.8213 319.219 61.7557 318.322 61.5075 317.468C61.2593 316.614 60.8343 315.822 60.2599 315.143C59.6856 314.464 58.9748 313.913 58.1737 313.527C57.3727 313.14 56.4993 312.927 55.6103 312.9C50.2603 312.9 44.7403 320.81 43.2703 325.35C43.1903 325.6 42.6503 328.2 42.2703 330.11C42.2703 328.98 42.2103 327.82 42.2103 326.74C42.2103 322.74 42.4803 318.99 42.7303 315.74C42.8903 313.88 43.0703 312.2 43.2603 310.62C44.8003 309.56 50.9903 305.19 52.9003 302.07C54.8103 298.95 56.2703 294.62 54.9003 291.07C54.6013 290.233 54.1296 289.468 53.5158 288.825C52.9021 288.182 52.1599 287.675 51.3377 287.338C50.5154 287 49.6313 286.839 48.7428 286.866C47.8543 286.892 46.9812 287.105 46.1803 287.49C41.4303 289.94 40.1803 299.49 40.9603 304.23C41.0303 304.63 42.8303 310.88 42.9603 310.83L43.0503 310.76C42.8403 312.27 42.6403 313.89 42.4503 315.67C42.1203 318.95 41.7803 322.67 41.6903 326.72C41.5353 331.096 41.6389 335.477 42.0003 339.84C42.3791 344.729 43.1923 349.575 44.4303 354.32C44.4347 354.377 44.4347 354.433 44.4303 354.49C43.5903 353.17 41.1103 349.55 40.8903 349.29C37.7703 345.68 29.6003 340.53 24.6803 342.62C23.872 342.99 23.1507 343.527 22.5631 344.194C21.9756 344.862 21.5351 345.645 21.2701 346.494C21.0051 347.343 20.9215 348.238 21.025 349.121C21.1284 350.004 21.4164 350.855 21.8703 351.62C23.7003 354.93 28.0603 356.57 31.5903 357.08Z" fill="black"/>
<path d="M123.35 331.94C123.43 331.99 125.06 325.7 125.12 325.29C125.77 320.56 124.27 311.03 119.45 308.7C118.639 308.335 117.76 308.145 116.87 308.142C115.981 308.14 115.101 308.324 114.287 308.685C113.474 309.045 112.746 309.573 112.15 310.234C111.554 310.895 111.105 311.674 110.83 312.52C109.54 316.06 111.18 320.42 113.12 323.42C115.39 326.93 123.34 331.94 123.35 331.94Z" fill="black"/>
</g>
<g opacity="0.3">
<path d="M216.61 64.5099C220.45 66.1899 229.84 65.9799 229.85 65.9799C229.86 65.9799 227.85 59.8299 227.65 59.4499C225.59 55.1399 219.07 48.0199 213.77 48.7399C212.893 48.8846 212.057 49.2121 211.314 49.7011C210.572 50.1901 209.941 50.8297 209.462 51.5785C208.983 52.3272 208.667 53.1683 208.534 54.0471C208.401 54.926 208.454 55.823 208.69 56.6799C209.57 60.3499 213.34 63.0799 216.61 64.5099Z" fill="black"/>
<path d="M219.851 91.72C223.851 92.3 232.221 89.87 232.851 89.72C234.259 94.5009 235.979 99.1843 238.001 103.74C239.151 106.41 240.39 109.06 241.68 111.74C240.91 110.62 240.221 109.63 240.111 109.5C236.981 105.89 228.821 100.74 223.891 102.83C223.082 103.2 222.361 103.737 221.773 104.404C221.186 105.072 220.745 105.855 220.48 106.704C220.215 107.553 220.132 108.448 220.235 109.331C220.339 110.214 220.627 111.065 221.081 111.83C222.901 115.14 227.26 116.78 230.79 117.29C234.32 117.8 241.561 115.89 243.461 115.35C243.961 116.35 244.461 117.35 244.961 118.35C247.391 123.18 249.831 127.99 252.081 132.79C252.871 134.48 253.591 136.17 254.321 137.86C253.641 136.86 253.061 136.04 252.961 135.92C249.831 132.3 241.671 127.16 236.741 129.25C235.932 129.62 235.211 130.157 234.623 130.824C234.036 131.492 233.595 132.275 233.33 133.124C233.065 133.973 232.982 134.868 233.085 135.751C233.189 136.634 233.477 137.485 233.93 138.25C235.76 141.56 240.111 143.2 243.641 143.71C247.171 144.22 253.711 142.49 255.971 141.86C256.661 143.62 257.361 145.37 257.971 147.1C258.351 148.29 258.791 149.41 259.101 150.63C259.411 151.85 259.771 153.02 260.101 154.19C260.651 156.48 261.231 158.83 261.701 161.08C262.051 162.64 262.351 164.13 262.701 165.63C261.921 163.94 260.35 160.63 260.18 160.4C257.64 156.4 250.35 150.03 245.18 151.4C244.326 151.645 243.533 152.067 242.853 152.638C242.172 153.209 241.619 153.917 241.23 154.716C240.84 155.514 240.623 156.386 240.592 157.274C240.561 158.162 240.718 159.046 241.051 159.87C242.341 163.42 246.401 165.7 249.811 166.74C253.57 167.89 261.89 166.84 262.93 166.74C263.43 169.23 263.931 171.65 264.291 173.94C264.591 175.64 264.86 177.27 265.11 178.84H268.441C268.134 177.1 267.801 175.273 267.441 173.36C266.951 170.84 266.371 168.15 265.751 165.36C268.252 164.357 270.693 163.209 273.061 161.92C275.8 164.92 282.821 168.36 283.731 168.8C282.731 171.15 281.821 173.42 280.891 175.55C280.401 176.68 279.891 177.75 279.451 178.81H282.971C283.251 178.14 283.531 177.48 283.811 176.81C284.811 174.43 285.811 171.86 286.811 169.22C287.811 169.43 296.051 171.1 299.891 170.22C303.371 169.43 307.59 167.46 309.15 164.02C309.545 163.223 309.766 162.352 309.801 161.464C309.836 160.575 309.683 159.689 309.353 158.864C309.023 158.038 308.523 157.292 307.885 156.672C307.247 156.053 306.485 155.575 305.65 155.27C300.58 153.56 292.84 159.32 290.001 163.17C289.831 163.4 288.291 166.06 287.351 167.76C287.751 166.68 288.16 165.63 288.561 164.51C289.37 162.3 290.111 160.08 290.921 157.69L291.981 154.14C292.361 152.97 292.61 151.68 292.93 150.44C293.62 147.54 294.18 144.57 294.68 141.57C296.61 142.27 303.51 144.68 307.09 144.42C310.671 144.16 315.09 142.87 317.18 139.7C317.691 138.972 318.042 138.145 318.212 137.272C318.381 136.399 318.365 135.501 318.164 134.635C317.963 133.769 317.582 132.955 317.046 132.246C316.509 131.537 315.829 130.949 315.05 130.52C310.29 128.07 301.771 132.59 298.381 135.96C298.171 136.17 296.011 138.86 294.851 140.36C295.141 138.55 295.431 136.75 295.661 134.91C296.321 129.61 296.821 124.22 297.34 118.84C297.501 117.19 297.681 115.56 297.851 113.91C298.541 114.17 306.681 117.2 310.691 116.91C314.251 116.66 318.691 115.35 320.781 112.19C321.289 111.462 321.64 110.634 321.808 109.762C321.977 108.889 321.96 107.991 321.759 107.126C321.559 106.26 321.178 105.446 320.642 104.737C320.107 104.028 319.428 103.44 318.65 103.01C313.89 100.56 305.371 105.08 301.981 108.45C301.721 108.7 298.621 112.58 297.881 113.6C298.271 109.99 298.681 106.39 299.231 102.86C299.956 98.0884 300.988 93.3686 302.321 88.73C302.641 88.85 311.121 92.05 315.221 91.73C318.781 91.48 323.221 90.18 325.311 87.01C325.819 86.2699 326.165 85.4301 326.324 84.5462C326.483 83.6623 326.453 82.7547 326.234 81.8835C326.016 81.0124 325.615 80.1978 325.057 79.4937C324.499 78.7896 323.798 78.2123 323.001 77.8C318.251 75.35 309.72 79.87 306.33 83.24C306.07 83.5 302.741 87.68 302.191 88.48C302.271 88.21 302.32 87.92 302.4 87.65C303.871 83.0374 305.745 78.5634 308.001 74.28C309.221 71.9 310.511 69.69 311.821 67.57C313.341 68.33 320.321 71.72 324.041 71.87C327.611 72.01 332.19 71.2 334.59 68.28C335.178 67.6124 335.618 66.8286 335.883 65.9796C336.147 65.1305 336.23 64.2353 336.125 63.3522C336.02 62.4691 335.731 61.618 335.275 60.8543C334.819 60.0906 334.208 59.4315 333.481 58.92C329.021 55.92 320.051 59.52 316.321 62.5C316.111 62.66 314.231 64.5 312.881 65.92C313.481 64.92 314.091 63.98 314.691 63.09C316.931 59.72 319.19 56.77 321.21 54.17C322.37 52.71 323.441 51.4 324.471 50.17C326.351 50.17 333.921 49.91 337.231 48.36C340.541 46.81 344.161 44 345.001 40.33C345.213 39.467 345.242 38.5689 345.085 37.6941C344.928 36.8193 344.588 35.9874 344.088 35.2525C343.589 34.5176 342.939 33.8963 342.183 33.429C341.427 32.9616 340.581 32.6587 339.701 32.54C334.331 32 328.001 39.26 326.061 43.62C325.9 44 323.951 50.2 324.061 50.2H324.18C323.18 51.34 322.101 52.58 320.971 53.96C318.881 56.51 316.56 59.42 314.24 62.76C311.688 66.3205 309.35 70.0304 307.24 73.87C304.844 78.155 302.835 82.6463 301.24 87.29C301.24 87.29 301.24 87.4 301.24 87.46C301.24 85.89 301.24 81.51 301.15 81.17C300.54 76.43 296.571 67.64 291.311 66.66C290.428 66.521 289.526 66.5703 288.664 66.8047C287.802 67.0391 287 67.4532 286.309 68.02C285.619 68.5867 285.056 69.2931 284.658 70.0928C284.26 70.8925 284.036 71.7674 284.001 72.66C283.691 76.42 286.421 80.19 289.09 82.57C292.09 85.25 300.421 87.85 301.09 88.05C299.599 92.8139 298.423 97.6711 297.571 102.59C297.061 105.45 296.641 108.35 296.251 111.27C296.251 109.91 296.2 108.7 296.18 108.53C295.56 103.79 291.59 94.99 286.33 94.02C285.449 93.8825 284.548 93.933 283.687 94.1681C282.827 94.4032 282.025 94.8177 281.336 95.3842C280.647 95.9508 280.085 96.6567 279.688 97.4556C279.29 98.2545 279.066 99.1284 279.031 100.02C278.721 103.78 281.45 107.55 284.11 109.93C286.77 112.31 293.87 114.7 295.74 115.29C295.61 116.41 295.461 117.53 295.321 118.65C294.681 124.02 294.071 129.38 293.321 134.65C293.051 136.5 292.721 138.31 292.391 140.12C292.391 138.91 292.341 137.9 292.321 137.75C291.711 133.01 287.741 124.21 282.481 123.24C281.598 123.103 280.697 123.153 279.836 123.388C278.975 123.623 278.173 124.037 277.483 124.604C276.793 125.17 276.23 125.876 275.831 126.675C275.433 127.474 275.208 128.348 275.171 129.24C274.861 133 277.591 136.77 280.261 139.15C282.931 141.53 289.33 143.68 291.561 144.4C291.171 146.25 290.781 148.1 290.321 149.87C289.971 151.07 289.731 152.25 289.321 153.44C288.911 154.63 288.56 155.79 288.18 156.95C287.38 159.16 286.561 161.45 285.721 163.58C285.151 165.07 284.581 166.48 284.011 167.9C284.301 166.07 284.791 162.46 284.791 162.16C284.745 157.943 283.612 153.81 281.501 150.16C281.511 149.692 281.481 149.223 281.411 148.76C281.299 147.878 281.004 147.029 280.544 146.269C280.084 145.509 279.469 144.853 278.739 144.346C278.009 143.839 277.181 143.491 276.307 143.324C275.434 143.158 274.536 143.177 273.671 143.38C268.491 144.76 265.211 153.84 264.971 158.61C264.971 158.89 265.141 161.96 265.291 163.9C265.031 162.77 264.791 161.68 264.511 160.52C263.961 158.24 263.35 155.97 262.71 153.52C262.36 152.35 262.001 151.17 261.641 149.98C261.281 148.79 260.801 147.58 260.391 146.36C259.391 143.57 258.191 140.78 256.951 138.01C258.951 137.53 266.041 135.72 268.881 133.54C271.721 131.36 274.711 127.81 274.691 124.03C274.714 123.141 274.551 122.258 274.211 121.437C273.871 120.616 273.361 119.875 272.716 119.264C272.071 118.653 271.304 118.184 270.466 117.889C269.628 117.593 268.736 117.478 267.851 117.55C262.531 118.13 257.911 126.55 256.951 131.28C256.891 131.57 256.57 135.01 256.43 136.9C255.67 135.24 254.921 133.57 254.101 131.9C251.721 127.11 249.171 122.34 246.641 117.57C245.861 116.11 245.111 114.64 244.351 113.18C245.061 113.01 253.53 111.05 256.71 108.6C259.54 106.43 262.55 102.88 262.52 99.1C262.544 98.2114 262.381 97.3279 262.041 96.5067C261.701 95.6855 261.191 94.9452 260.546 94.3339C259.901 93.7226 259.134 93.2541 258.296 92.9588C257.458 92.6635 256.566 92.548 255.68 92.62C250.36 93.19 245.741 101.62 244.781 106.35C244.701 106.7 244.261 111.65 244.211 112.91C242.531 109.68 240.89 106.45 239.4 103.2C237.374 98.8231 235.63 94.3204 234.18 89.72C234.51 89.64 243.361 87.63 246.62 85.13C249.451 82.95 252.46 79.4 252.43 75.62C252.454 74.7314 252.291 73.8479 251.951 73.0267C251.611 72.2055 251.101 71.4652 250.456 70.8539C249.811 70.2426 249.044 69.7741 248.206 69.4788C247.368 69.1835 246.476 69.068 245.59 69.14C240.271 69.72 235.651 78.14 234.691 82.87C234.611 83.24 234.13 88.56 234.12 89.53C234.03 89.26 233.92 88.99 233.84 88.73C232.518 84.0693 231.611 79.3007 231.131 74.48C230.831 71.83 230.7 69.27 230.62 66.78C232.31 66.57 240 65.55 243.18 63.62C246.36 61.69 249.611 58.57 250.001 54.81C250.121 53.9297 250.056 53.0338 249.809 52.1804C249.561 51.327 249.137 50.5352 248.563 49.8563C247.99 49.1774 247.281 48.6266 246.481 48.2396C245.681 47.8527 244.809 47.6381 243.921 47.61C238.561 47.61 233.041 55.52 231.571 60.07C231.491 60.31 230.951 62.92 230.571 64.82C230.571 63.69 230.511 62.53 230.521 61.46C230.521 57.46 230.781 53.7 231.031 50.46C231.191 48.6 231.37 46.92 231.56 45.35C233.11 44.28 239.3 39.91 241.2 36.79C243.1 33.67 244.581 29.34 243.201 25.79C242.903 24.9532 242.432 24.1885 241.819 23.5456C241.206 22.9027 240.465 22.3959 239.644 22.0583C238.822 21.7206 237.939 21.5596 237.051 21.5857C236.163 21.6119 235.291 21.8246 234.491 22.21C229.731 24.67 228.491 34.21 229.271 38.95C229.341 39.36 231.131 45.6 231.211 45.55L231.31 45.49C231.101 46.99 230.89 48.62 230.7 50.39C230.37 53.67 230.041 57.39 229.941 61.44C229.796 65.819 229.899 70.2027 230.251 74.57C230.625 79.4418 231.432 84.2707 232.661 89C232.671 89.0582 232.688 89.1152 232.711 89.17C231.871 87.85 229.39 84.23 229.17 83.97C226 80.31 217.881 75.17 213.001 77.26C212.191 77.6292 211.469 78.1649 210.88 78.8322C210.292 79.4994 209.851 80.2832 209.586 81.1324C209.32 81.9816 209.237 82.8772 209.341 83.7607C209.446 84.6442 209.735 85.4958 210.191 86.26C212.001 89.57 216.321 91.2 219.851 91.72Z" fill="black"/>
<path d="M311.61 66.5799C311.7 66.5799 313.32 60.3299 313.38 59.9199C314.04 55.1899 312.53 45.6599 307.71 43.3299C306.9 42.9648 306.021 42.7748 305.132 42.7722C304.243 42.7697 303.364 42.9548 302.551 43.3153C301.739 43.6758 301.011 44.2037 300.417 44.8644C299.822 45.5252 299.373 46.304 299.1 47.1499C297.8 50.6999 299.44 55.0499 301.38 58.0499C303.66 61.5699 311.61 66.5699 311.61 66.5799Z" fill="black"/>
</g>
<path d="M251.24 64.9099H63.77C57.2585 64.9099 51.98 70.1885 51.98 76.6999V327.37C51.98 333.881 57.2585 339.16 63.77 339.16H251.24C257.751 339.16 263.03 333.881 263.03 327.37V76.6999C263.03 70.1885 257.751 64.9099 251.24 64.9099Z" fill="#263238"/>
<path d="M252.94 81.1301H62.0801V326.15H252.94V81.1301Z" fill="white" stroke="#263238" stroke-linecap="round" stroke-linejoin="round"/>
<path d="M118.75 117.82H196.27" stroke="#263238" stroke-linecap="round" stroke-linejoin="round"/>
<path d="M83.1098 170.57C90.1956 170.57 95.9398 164.826 95.9398 157.74C95.9398 150.654 90.1956 144.91 83.1098 144.91C76.024 144.91 70.2798 150.654 70.2798 157.74C70.2798 164.826 76.024 170.57 83.1098 170.57Z" stroke="#263238" stroke-linecap="round" stroke-linejoin="round"/>
<path d="M101.81 158.81H232.77" stroke="#263238" stroke-linecap="round" stroke-linejoin="round"/>
<path d="M77.7598 154.54L82.5698 162.02L98.0698 141.71" stroke="#407BFF" stroke-width="4" stroke-linecap="round" stroke-linejoin="round"/>
<path d="M86.0541 201.774C92.9505 200.147 97.2215 193.236 95.5939 186.34C93.9662 179.444 87.0561 175.173 80.1598 176.8C73.2634 178.428 68.9923 185.338 70.62 192.234C72.2477 199.131 79.1578 203.402 86.0541 201.774Z" stroke="#263238" stroke-linecap="round" stroke-linejoin="round"/>
<path d="M101.81 190.35H232.77" stroke="#263238" stroke-linecap="round" stroke-linejoin="round"/>
<path d="M77.7598 186.07L82.5698 193.56L98.0698 173.24" stroke="#407BFF" stroke-width="4" stroke-linecap="round" stroke-linejoin="round"/>
<path d="M86.0492 233.311C92.9456 231.683 97.2167 224.773 95.589 217.877C93.9613 210.98 87.0512 206.709 80.1549 208.337C73.2586 209.965 68.9875 216.875 70.6151 223.771C72.2428 230.667 79.1529 234.938 86.0492 233.311Z" stroke="#263238" stroke-linecap="round" stroke-linejoin="round"/>
<path d="M101.81 221.89H232.77" stroke="#263238" stroke-linecap="round" stroke-linejoin="round"/>
<path d="M77.7598 217.61L82.5698 225.09L98.0698 204.78" stroke="#407BFF" stroke-width="4" stroke-linecap="round" stroke-linejoin="round"/>
<path d="M92.178 261.423C97.1884 256.413 97.1884 248.289 92.178 243.279C87.1675 238.268 79.044 238.268 74.0336 243.279C69.0232 248.289 69.0232 256.413 74.0336 261.423C79.044 266.433 87.1675 266.433 92.178 261.423Z" stroke="#263238" stroke-linecap="round" stroke-linejoin="round"/>
<path d="M101.81 253.42H232.77" stroke="#263238" stroke-linecap="round" stroke-linejoin="round"/>
<path d="M77.7598 249.15L82.5698 256.63L98.0698 236.32" stroke="#407BFF" stroke-width="4" stroke-linecap="round" stroke-linejoin="round"/>
<path d="M83.1098 296.72C90.1956 296.72 95.9398 290.976 95.9398 283.89C95.9398 276.804 90.1956 271.06 83.1098 271.06C76.024 271.06 70.2798 276.804 70.2798 283.89C70.2798 290.976 76.024 296.72 83.1098 296.72Z" stroke="#263238" stroke-linecap="round" stroke-linejoin="round"/>
<path d="M101.81 284.96H232.77" stroke="#263238" stroke-linecap="round" stroke-linejoin="round"/>
<path d="M77.7598 280.68L82.5698 288.17L98.0698 267.85" stroke="#407BFF" stroke-width="4" stroke-linecap="round" stroke-linejoin="round"/>
<path d="M182.65 59.37C181.726 59.3543 180.823 59.0907 180.035 58.6066C179.248 58.1225 178.605 57.4358 178.174 56.6183C177.742 55.8007 177.539 54.8823 177.584 53.9591C177.629 53.0358 177.921 52.1417 178.43 51.37C180.147 48.6212 181.094 45.4613 181.171 42.2212C181.248 38.981 180.452 35.7797 178.868 32.9524C177.283 30.1251 174.968 27.7757 172.164 26.1501C169.36 24.5245 166.171 23.6825 162.93 23.7123C159.689 23.7421 156.515 24.6425 153.742 26.3193C150.968 27.9961 148.696 30.3876 147.164 33.2436C145.632 36.0995 144.895 39.3148 145.032 42.553C145.168 45.7912 146.173 48.9332 147.94 51.65C148.417 52.4261 148.677 53.3158 148.694 54.2265C148.711 55.1373 148.483 56.0359 148.035 56.829C147.587 57.622 146.935 58.2806 146.146 58.7363C145.357 59.192 144.461 59.428 143.55 59.42H112.11L120.61 83.83H205.61L214.11 59.42L182.65 59.37ZM163.1 49C161.847 49.002 160.623 48.6324 159.58 47.9381C158.538 47.2437 157.725 46.2558 157.245 45.0993C156.764 43.9429 156.637 42.6698 156.88 41.4412C157.123 40.2127 157.725 39.0839 158.61 38.1976C159.495 37.3113 160.623 36.7075 161.851 36.4624C163.079 36.2173 164.353 36.3421 165.51 36.8209C166.667 37.2997 167.656 38.1111 168.352 39.1522C169.048 40.1934 169.42 41.4176 169.42 42.67C169.42 44.3471 168.754 45.9557 167.569 47.1425C166.384 48.3293 164.777 48.9974 163.1 49Z" fill="white" stroke="#263238" stroke-linecap="round" stroke-linejoin="round"/>
<path d="M265.26 444.1H375.7V345.22H265.26V444.1Z" fill="#407BFF" stroke="#263238" stroke-linecap="round" stroke-linejoin="round"/>
<path d="M265.27 444.1H300.83V345.22H265.27V444.1Z" fill="#263238" stroke="#263238" stroke-linecap="round" stroke-linejoin="round"/>
<path d="M278.28 372.19H287.82V345.22H278.28V372.19Z" fill="white" stroke="#263238" stroke-linecap="round" stroke-linejoin="round"/>
<path d="M352.78 365.63H369.23V355.55H352.78V365.63Z" stroke="#263238" stroke-linecap="round" stroke-linejoin="round"/>
<path d="M187.31 444.1H297.75V345.22H187.31V444.1Z" fill="#407BFF" stroke="#263238" stroke-linecap="round" stroke-linejoin="round"/>
<path d="M187.32 444.1H222.88V345.22H187.32V444.1Z" fill="#263238" stroke="#263238" stroke-linecap="round" stroke-linejoin="round"/>
<path d="M200.33 372.19H209.87V345.22H200.33V372.19Z" fill="white" stroke="#263238" stroke-linecap="round" stroke-linejoin="round"/>
<path d="M273.98 365.63H290.43V355.55H273.98V365.63Z" stroke="#263238" stroke-linecap="round" stroke-linejoin="round"/>
<path d="M108.17 444.1H218.61V345.22H108.17L108.17 444.1Z" fill="#407BFF" stroke="#263238" stroke-linecap="round" stroke-linejoin="round"/>
<path d="M108.17 444.1H143.73V345.22H108.17L108.17 444.1Z" fill="#263238" stroke="#263238" stroke-linecap="round" stroke-linejoin="round"/>
<path d="M121.18 372.19H130.72V345.22H121.18V372.19Z" fill="white" stroke="#263238" stroke-linecap="round" stroke-linejoin="round"/>
<path d="M196.51 365.63H212.96V355.55H196.51V365.63Z" stroke="#263238" stroke-linecap="round" stroke-linejoin="round"/>
<path d="M227.43 345.11H337.87V246.23H227.43V345.11Z" fill="#407BFF" stroke="#263238" stroke-linecap="round" stroke-linejoin="round"/>
<path d="M227.44 345.11H263V246.23H227.44V345.11Z" fill="#263238" stroke="#263238" stroke-linecap="round" stroke-linejoin="round"/>
<path d="M240.45 273.19H249.99V246.22H240.45V273.19Z" fill="white" stroke="#263238" stroke-linecap="round" stroke-linejoin="round"/>
<path d="M322.54 304.09H333.68V247.31H322.54V304.09Z" stroke="#263238" stroke-linecap="round" stroke-linejoin="round"/>
<path d="M199.28 246.04H309.72V147.16H199.28V246.04Z" fill="#407BFF" stroke="#263238" stroke-linecap="round" stroke-linejoin="round"/>
<path d="M199.28 246.04H234.84V147.16H199.28V246.04Z" fill="#263238" stroke="#263238" stroke-linecap="round" stroke-linejoin="round"/>
<path d="M212.28 174.13H221.82V147.16H212.28V174.13Z" fill="white" stroke="#263238" stroke-linecap="round" stroke-linejoin="round"/>
<path d="M293.35 204.96H304.49V148.18H293.35V204.96Z" stroke="#263238" stroke-linecap="round" stroke-linejoin="round"/>
<path d="M146.83 345.11H257.27V246.23H146.83V345.11Z" fill="#407BFF" stroke="#263238" stroke-linecap="round" stroke-linejoin="round"/>
<path d="M146.84 345.11H182.4V246.23H146.84V345.11Z" fill="#263238" stroke="#263238" stroke-linecap="round" stroke-linejoin="round"/>
<path d="M159.85 273.19H169.39V246.22H159.85V273.19Z" fill="white" stroke="#263238" stroke-linecap="round" stroke-linejoin="round"/>
<path d="M239.76 304.09H250.9V247.31H239.76V304.09Z" stroke="#263238" stroke-linecap="round" stroke-linejoin="round"/>
<path d="M364.94 221.83C364.978 221.694 365.045 221.567 365.136 221.459C365.228 221.35 365.341 221.262 365.468 221.201C365.596 221.139 365.735 221.106 365.877 221.102C366.018 221.098 366.159 221.125 366.29 221.18L372.67 224.02L365.84 217.57C365.621 217.402 365.478 217.153 365.442 216.879C365.407 216.606 365.481 216.329 365.65 216.11C365.818 215.891 366.067 215.748 366.34 215.713C366.614 215.677 366.891 215.752 367.11 215.92L374.55 220.57L370.24 215.28C370.097 215.086 370.028 214.848 370.047 214.608C370.066 214.368 370.171 214.142 370.342 213.973C370.513 213.804 370.74 213.703 370.98 213.688C371.221 213.672 371.458 213.744 371.65 213.89L380.23 221.14L379.42 217.98C379.35 217.68 379.395 217.365 379.546 217.097C379.697 216.829 379.944 216.627 380.236 216.532C380.529 216.436 380.847 216.454 381.127 216.581C381.407 216.709 381.629 216.937 381.75 217.22C382.3 218.6 383.35 221.22 383.75 222.05C384.449 223.576 384.885 225.209 385.04 226.88C384.97 227.88 384.96 230.14 384.96 230.14L401 242.76L402.24 241.29L406.58 245.4L406.45 247.02L410.4 250.02C410.4 250.02 436.87 236.57 440.32 236.34C443.77 236.11 448.55 242.16 446.48 248.22C444.41 254.28 409.39 263.83 408.24 263.91C407.09 263.99 381.83 234.48 381.83 234.48C379.72 233.694 377.66 232.783 375.66 231.75C374.09 230.81 367.71 228.27 365.66 227.47C365.491 227.399 365.355 227.267 365.279 227.1C365.203 226.933 365.193 226.744 365.25 226.57C365.307 226.4 365.426 226.257 365.584 226.17C365.741 226.083 365.925 226.058 366.1 226.1L371.4 227.35L365.26 222.85C365.115 222.728 365.009 222.567 364.952 222.386C364.895 222.206 364.891 222.013 364.94 221.83Z" fill="#263238" stroke="#263238" stroke-linecap="round" stroke-linejoin="round"/>
<path d="M304.56 367.8L313.36 360.76L324.13 352.15L355.47 327.07L355.71 327.23L355.74 327.25L355.76 327.27L386.7 348.69L397.74 356.33L406.95 362.71L369.62 202.61L367.47 202.67L364.73 202.74L327.75 203.74L304.56 367.8Z" fill="#263238" stroke="#263238" stroke-linecap="round" stroke-linejoin="round"/>
<path d="M355.55 327.1L355.57 327.07L355.75 327.27L355.55 327.1Z" fill="white" stroke="#263238" stroke-linecap="round" stroke-linejoin="round"/>
<path d="M313.36 360.76L324.13 352.15L337.67 203.74L355.76 202.99L332.11 203.74L313.36 360.76Z" fill="white" stroke="#263238" stroke-linecap="round" stroke-linejoin="round"/>
<path d="M364.72 202.7L364.73 202.74L386.7 348.69L397.74 356.33L367.47 202.67L367.46 202.61L364.72 202.7Z" fill="white" stroke="#263238" stroke-linecap="round" stroke-linejoin="round"/>
<path d="M285.61 186.25C285.61 184.05 281.92 181.69 282.14 179.55C282.36 177.41 286.47 175.81 286.92 173.71C287.37 171.61 284.25 168.49 284.92 166.43C285.59 164.37 289.92 163.7 290.81 161.72C291.7 159.74 289.29 156.07 290.38 154.19C291.47 152.31 295.85 152.56 297.12 150.81C298.39 149.06 296.81 144.97 298.26 143.36C299.71 141.75 303.95 142.9 305.56 141.45C307.17 140 306.46 135.67 308.22 134.39C309.98 133.11 313.87 135.12 315.75 134.03C317.63 132.94 317.83 128.57 319.82 127.68C321.81 126.79 325.18 129.57 327.26 128.9C329.34 128.23 330.43 123.99 332.57 123.54C334.71 123.09 337.41 126.54 339.57 126.29C341.73 126.04 343.68 122.15 345.87 122.15C348.06 122.15 350.04 126.07 352.18 126.29C354.32 126.51 357.1 123.09 359.18 123.54C361.26 123.99 362.44 128.23 364.49 128.9C366.54 129.57 369.96 126.8 371.93 127.68C373.9 128.56 374.17 133 376 134C377.83 135 381.78 133.08 383.53 134.36C385.28 135.64 384.58 139.97 386.19 141.42C387.8 142.87 392.03 141.72 393.49 143.33C394.95 144.94 393.35 149.03 394.63 150.78C395.91 152.53 400.28 152.28 401.37 154.16C402.46 156.04 400.05 159.7 400.94 161.69C401.83 163.68 406.16 164.33 406.83 166.41C407.5 168.49 404.38 171.54 404.83 173.68C405.28 175.82 409.38 177.34 409.6 179.52C409.82 181.7 406.14 184.02 406.14 186.22C406.14 188.42 409.83 190.78 409.6 192.92C409.37 195.06 405.28 196.65 404.83 198.76C404.38 200.87 407.5 203.98 406.83 206.03C406.16 208.08 401.83 208.77 400.94 210.74C400.05 212.71 402.46 216.4 401.37 218.27C400.28 220.14 395.9 219.9 394.63 221.65C393.36 223.4 394.94 227.5 393.49 229.11C392.04 230.72 387.8 229.56 386.19 231.02C384.58 232.48 385.29 236.8 383.53 238.08C381.77 239.36 377.88 237.34 376 238.43C374.12 239.52 373.92 243.9 371.93 244.79C369.94 245.68 366.56 242.89 364.49 243.57C362.42 244.25 361.32 248.47 359.18 248.92C357.04 249.37 354.34 245.92 352.18 246.17C350.02 246.42 348.07 250.31 345.87 250.31C343.67 250.31 341.71 246.4 339.57 246.17C337.43 245.94 334.65 249.37 332.57 248.92C330.49 248.47 329.31 244.23 327.26 243.56C325.21 242.89 321.79 245.66 319.82 244.78C317.85 243.9 317.62 239.52 315.75 238.43C313.88 237.34 309.97 239.35 308.22 238.07C306.47 236.79 307.17 232.47 305.56 231.07C303.95 229.67 299.71 230.77 298.26 229.16C296.81 227.55 298.4 223.46 297.12 221.7C295.84 219.94 291.47 220.2 290.38 218.32C289.29 216.44 291.7 212.78 290.81 210.79C289.92 208.8 285.59 208.15 284.92 206.08C284.25 204.01 287.37 200.95 286.92 198.81C286.47 196.67 282.37 195.15 282.15 192.97C281.93 190.79 285.61 188.44 285.61 186.25Z" fill="white" stroke="#263238" stroke-linecap="round" stroke-linejoin="round"/>
<path d="M345.89 237.5C374.194 237.5 397.14 214.555 397.14 186.25C397.14 157.945 374.194 135 345.89 135C317.585 135 294.64 157.945 294.64 186.25C294.64 214.555 317.585 237.5 345.89 237.5Z" fill="#407BFF" stroke="#263238" stroke-linecap="round" stroke-linejoin="round"/>
<path d="M390.061 196.899C395.939 172.507 380.931 147.968 356.539 142.089C332.147 136.211 307.608 151.219 301.73 175.611C295.851 200.003 310.859 224.542 335.251 230.42C359.643 236.299 384.182 221.29 390.061 196.899Z" fill="#263238"/>
<path d="M456.33 355C456.33 355 455.46 362.37 456.54 365.4C457.62 368.43 464.54 389.25 465.65 407.67C466.76 426.09 467.81 443.01 467.16 443.88C466.51 444.75 462.61 444.31 462.61 444.31H449.61C449.318 444.089 449.114 443.772 449.033 443.415C448.953 443.059 449.001 442.685 449.17 442.36C449.82 441.28 456.11 436.51 456.98 434.99C457.829 433.645 458.485 432.187 458.93 430.66C458.93 430.01 457.41 414.17 452.21 403.77C447.01 393.37 440.29 367.77 439.64 358.46L456.33 355Z" fill="white" stroke="#263238" stroke-linecap="round" stroke-linejoin="round"/>
<path d="M449.17 442.37C450.588 440.882 452.108 439.495 453.72 438.22V440.42H467.35C467.46 441.58 467.396 442.749 467.16 443.89C466.51 444.76 462.61 444.32 462.61 444.32H449.61C449.318 444.099 449.114 443.782 449.034 443.425C448.953 443.069 449.001 442.695 449.17 442.37Z" fill="#407BFF" stroke="#263238" stroke-linecap="round" stroke-linejoin="round"/>
<path d="M442.45 356.09C442.45 356.09 439.45 377.77 441.59 384.27C443.73 390.77 442.89 402.48 439.85 414.83C436.81 427.18 434.44 434.99 434.44 435.64C434.44 436.29 434.44 442.14 433.79 443.22C433.14 444.3 414.06 444.09 412.79 444.09C411.52 444.09 410.19 442.79 411.28 441.49C412.37 440.19 418.22 438.77 422.11 436.94C425.8 435.2 426.01 434.77 426.01 434.77C426.01 434.77 428.18 409.41 427.31 398.14C426.44 386.87 421.66 363.46 422.53 355.66L442.45 356.09Z" fill="white" stroke="#263238" stroke-linecap="round" stroke-linejoin="round"/>
<path d="M412.76 444.09C411.46 444.09 410.16 442.79 411.25 441.49C412.12 440.44 416.09 439.32 419.63 437.96L420.35 439.54L434.35 438.49C434.28 440.37 434.12 442.6 433.75 443.22C433.14 444.31 414.06 444.09 412.76 444.09Z" fill="#407BFF" stroke="#263238" stroke-linecap="round" stroke-linejoin="round"/>
<path d="M454.56 282.57C454.56 282.57 461.96 298.66 462.61 308.41C463.26 318.16 459.14 328.78 459.14 328.78L461.74 356.78C461.74 356.78 453.07 362.2 438.55 361.98C424.03 361.76 416.88 359.38 416.88 359.38C416.88 359.38 415.15 325.38 419.7 308.88C424.25 292.38 422.63 283.43 422.63 283.43C422.63 283.43 442.82 284.26 454.56 282.57Z" fill="#263238" stroke="#263238" stroke-linecap="round" stroke-linejoin="round"/>
<path d="M427 220.35C427 220.35 429.12 227.35 429.93 231.26C430.74 235.17 428.63 242.66 425.86 247.87C423.09 253.08 419.99 258.63 421.46 263.35C422.93 268.07 423.58 269.87 423.58 269.87C423.58 269.87 422.44 281.43 422.58 283.39C422.72 285.35 431.05 287.3 439.36 286.48C447.67 285.66 453.86 284.04 454.51 282.57C455.16 281.1 454.51 272.96 455.65 268.73C456.79 264.5 457.12 244.73 454.51 240.54C451.9 236.35 445.88 229.63 445.88 229.63L441 216.76L427 220.35Z" fill="#407BFF" stroke="#263238" stroke-linecap="round" stroke-linejoin="round"/>
<path d="M448.38 232.45C445.341 231.776 442.174 231.985 439.25 233.05C436.06 234.27 431.96 237.43 429.05 239.9C429.97 236.59 430.41 233.39 429.96 231.26C429.15 227.35 427.03 220.35 427.03 220.35L441.03 216.76L445.92 229.63C445.92 229.63 447 230.79 448.38 232.45Z" fill="white" stroke="#263238" stroke-linecap="round" stroke-linejoin="round"/>
<path d="M420.57 193.69C420.57 193.69 418.57 198.91 417.92 201.14C417.27 203.37 416.2 205.56 414.87 205.77C413.54 205.98 412.31 207 413.13 208.71C413.96 210.103 415.003 211.358 416.22 212.43C416.22 212.43 417.41 220.89 418.29 221.95C419.17 223.01 423.29 222.95 425.78 222.31C428.27 221.67 433.11 220.86 433.11 220.86C433.11 220.86 434.68 203.86 433.7 200.3C432.72 196.74 428.45 191.64 427.19 191.03C425.93 190.42 420.57 193.69 420.57 193.69Z" fill="white" stroke="#263238" stroke-linecap="round" stroke-linejoin="round"/>
<path d="M419.6 204.24C419.51 205.13 419.77 205.89 420.18 205.93C420.59 205.97 420.97 205.27 421.06 204.37C421.15 203.47 420.88 202.72 420.47 202.68C420.06 202.64 419.68 203.34 419.6 204.24Z" fill="#263238"/>
<path d="M423.73 202C423.73 202 421.37 199.17 419.64 200.15" stroke="#263238" stroke-linecap="round" stroke-linejoin="round"/>
<path d="M422.43 212.51C421.195 213.391 419.726 213.886 418.21 213.93" stroke="#263238" stroke-linecap="round" stroke-linejoin="round"/>
<path d="M426.35 193.08C426.35 193.08 430.78 201.83 431.17 202.85C431.56 203.87 431.87 221.85 430.84 226.05C430.367 228.348 429.138 230.421 427.35 231.94C433.049 233.161 438.874 233.699 444.7 233.54C454.54 233.31 459.01 230.94 459.01 230.94C457.976 223.011 457.349 215.033 457.13 207.04C456.9 195.24 451.64 186.74 445.07 185.16C438.5 183.58 430.53 184.96 430.53 184.96C430.53 184.96 425.94 179.79 420.18 183.68C414.42 187.57 416.53 193.16 419.18 194.87C421.163 196.073 423.26 197.078 425.44 197.87L426.35 193.08Z" fill="#263238" stroke="#263238" stroke-linecap="round" stroke-linejoin="round"/>
<path d="M409.89 252.94C409.89 252.94 435.34 237.29 438.76 236.8C442.18 236.31 447.39 242.01 445.76 248.2C444.13 254.39 409.89 266.79 408.76 266.95C407.63 267.11 379.87 240.09 379.87 240.09C377.705 239.461 375.581 238.7 373.51 237.81C371.88 236.99 365.33 234.92 363.24 234.27C363.066 234.214 362.92 234.094 362.833 233.934C362.745 233.774 362.723 233.586 362.77 233.41C362.811 233.234 362.917 233.08 363.068 232.979C363.218 232.879 363.402 232.84 363.58 232.87L368.95 233.74L362.51 229.69C362.348 229.584 362.219 229.433 362.141 229.255C362.063 229.078 362.038 228.881 362.07 228.69C362.098 228.552 362.155 228.421 362.238 228.307C362.32 228.193 362.425 228.097 362.547 228.026C362.669 227.955 362.804 227.911 362.944 227.896C363.084 227.881 363.226 227.896 363.36 227.94L369.93 230.32L362.65 224.38C362.447 224.226 362.31 224.001 362.268 223.75C362.225 223.5 362.279 223.242 362.42 223.03C362.484 222.912 362.57 222.809 362.674 222.725C362.779 222.642 362.899 222.58 363.028 222.543C363.156 222.507 363.291 222.497 363.424 222.513C363.556 222.53 363.684 222.573 363.8 222.64L371.56 226.74L366.87 221.74C366.768 221.631 366.691 221.501 366.646 221.36C366.601 221.218 366.588 221.067 366.608 220.92C366.628 220.772 366.681 220.631 366.762 220.506C366.844 220.382 366.953 220.277 367.08 220.2C367.248 220.1 367.442 220.051 367.637 220.06C367.833 220.069 368.022 220.135 368.18 220.25L377.26 226.87L376.26 223.77C376.205 223.607 376.186 223.434 376.202 223.262C376.219 223.091 376.271 222.925 376.356 222.775C376.441 222.625 376.557 222.494 376.695 222.392C376.833 222.29 376.992 222.217 377.16 222.18C377.428 222.121 377.708 222.154 377.954 222.274C378.201 222.394 378.4 222.593 378.52 222.84C379.17 224.18 380.41 226.7 380.87 227.52C381.679 228.989 382.23 230.585 382.5 232.24C382.5 233.24 382.67 235.5 382.67 235.5L409.89 252.94Z" fill="white" stroke="#263238" stroke-linecap="round" stroke-linejoin="round"/>
<path d="M395.46 255L395.78 254.47L400.89 247.41L409.89 252.9C409.89 252.9 435.34 237.25 438.76 236.76C442.18 236.27 447.39 241.97 445.76 248.16C444.13 254.35 409.89 266.75 408.76 266.91C408.2 267 404.08 262.91 395.46 255Z" fill="#407BFF" stroke="#263238" stroke-linecap="round" stroke-linejoin="round"/>
<path d="M404.02 249.31L396.86 257.98L392.75 254.72L399.9 245.84L404.02 249.31Z" fill="#407BFF" stroke="#263238" stroke-linecap="round" stroke-linejoin="round"/>
<path d="M309.53 188.55V172.75H314.53C315.338 172.715 316.14 172.902 316.85 173.29C317.452 173.648 317.923 174.192 318.19 174.84C318.501 175.622 318.651 176.459 318.63 177.3C318.68 178.22 318.48 179.136 318.05 179.95C317.698 180.568 317.143 181.045 316.48 181.3C315.753 181.58 314.979 181.716 314.2 181.7H312.74V188.55H309.53ZM312.75 179.44H313.88C314.253 179.463 314.625 179.387 314.96 179.22C315.09 179.142 315.202 179.04 315.292 178.918C315.381 178.796 315.445 178.657 315.48 178.51C315.581 178.101 315.628 177.681 315.62 177.26C315.626 176.854 315.589 176.448 315.51 176.05C315.454 175.744 315.282 175.472 315.03 175.29C314.678 175.079 314.269 174.981 313.86 175.01H312.75V179.44Z" fill="#407BFF"/>
<path d="M320.18 188.55V172.75H324.27C325.196 172.731 326.12 172.852 327.01 173.11C327.727 173.32 328.349 173.772 328.77 174.39C329.219 175.158 329.431 176.042 329.38 176.93C329.388 177.507 329.335 178.084 329.22 178.65C329.12 179.124 328.919 179.571 328.63 179.96C328.321 180.355 327.914 180.662 327.45 180.85L329.64 188.55H326.34L324.53 181.39H323.4V188.55H320.18ZM323.4 179.48H324.33C324.754 179.502 325.177 179.416 325.56 179.23C325.858 179.058 326.085 178.785 326.2 178.46C326.329 178.046 326.389 177.614 326.38 177.18C326.418 176.596 326.279 176.014 325.98 175.51C325.797 175.3 325.565 175.139 325.306 175.039C325.046 174.94 324.766 174.906 324.49 174.94H323.4V179.48Z" fill="#407BFF"/>
<path d="M335.84 188.76C334.883 188.811 333.932 188.596 333.09 188.14C332.417 187.73 331.906 187.101 331.64 186.36C331.324 185.468 331.175 184.526 331.2 183.58V177.69C331.174 176.747 331.323 175.808 331.64 174.92C331.904 174.183 332.416 173.56 333.09 173.16C333.957 172.761 334.9 172.555 335.855 172.555C336.809 172.555 337.752 172.761 338.62 173.16C339.293 173.562 339.809 174.184 340.08 174.92C340.392 175.806 340.541 176.741 340.52 177.68V183.57C340.538 184.515 340.389 185.457 340.08 186.35C339.81 187.092 339.295 187.72 338.62 188.13C337.768 188.591 336.807 188.809 335.84 188.76ZM335.84 186.44C336.171 186.47 336.501 186.369 336.76 186.16C336.961 185.95 337.097 185.686 337.15 185.4C337.21 185.07 337.24 184.735 337.24 184.4V176.93C337.241 176.595 337.211 176.26 337.15 175.93C337.094 175.648 336.959 175.387 336.76 175.18C336.501 174.971 336.171 174.87 335.84 174.9C335.521 174.874 335.205 174.975 334.96 175.18C334.76 175.387 334.625 175.648 334.57 175.93C334.505 176.259 334.471 176.594 334.47 176.93V184.4C334.469 184.735 334.499 185.07 334.56 185.4C334.605 185.686 334.738 185.952 334.94 186.16C335.192 186.366 335.515 186.467 335.84 186.44Z" fill="#407BFF"/>
<path d="M342.67 188.55V172.75H346.53C347.598 172.705 348.664 172.882 349.66 173.27C350.377 173.587 350.946 174.167 351.25 174.89C351.588 175.79 351.744 176.749 351.71 177.71V183.46C351.742 184.444 351.586 185.425 351.25 186.35C350.953 187.08 350.393 187.673 349.68 188.01C348.709 188.414 347.661 188.599 346.61 188.55H342.67ZM345.88 186.31H346.57C347.013 186.346 347.457 186.245 347.84 186.02C347.973 185.923 348.085 185.798 348.167 185.655C348.25 185.513 348.302 185.354 348.32 185.19C348.395 184.734 348.428 184.272 348.42 183.81V177.3C348.433 176.856 348.389 176.413 348.29 175.98C348.259 175.831 348.199 175.69 348.113 175.565C348.027 175.44 347.917 175.333 347.79 175.25C347.405 175.063 346.977 174.98 346.55 175.01H345.88V186.31Z" fill="#407BFF"/>
<path d="M358.29 188.76C357.321 188.816 356.356 188.605 355.5 188.15C354.837 187.745 354.341 187.118 354.1 186.38C353.818 185.467 353.683 184.515 353.7 183.56V172.75H356.88V184C356.879 184.385 356.91 184.77 356.97 185.15C357.013 185.484 357.148 185.799 357.36 186.06C357.619 186.286 357.951 186.411 358.295 186.411C358.639 186.411 358.971 186.286 359.23 186.06C359.442 185.8 359.575 185.484 359.61 185.15C359.662 184.769 359.688 184.385 359.69 184V172.75H362.87V183.56C362.893 184.516 362.758 185.468 362.47 186.38C362.229 187.115 361.737 187.742 361.08 188.15C360.222 188.602 359.258 188.813 358.29 188.76Z" fill="#407BFF"/>
<path d="M369.5 188.76C368.529 188.811 367.564 188.582 366.72 188.1C366.044 187.671 365.539 187.02 365.29 186.26C365.003 185.376 364.865 184.45 364.88 183.52V177.84C364.861 176.884 365 175.931 365.29 175.02C365.54 174.266 366.046 173.622 366.72 173.2C367.568 172.731 368.531 172.509 369.5 172.56C370.42 172.514 371.336 172.707 372.16 173.12C372.788 173.478 373.273 174.044 373.53 174.72C373.807 175.49 373.942 176.303 373.93 177.12V178.45H370.81V177C370.81 176.666 370.79 176.332 370.75 176C370.722 175.714 370.611 175.443 370.43 175.22C370.308 175.109 370.164 175.024 370.007 174.973C369.85 174.921 369.684 174.903 369.52 174.92C369.35 174.905 369.179 174.924 369.017 174.977C368.856 175.031 368.707 175.117 368.58 175.23C368.382 175.46 368.254 175.741 368.21 176.04C368.159 176.405 368.136 176.772 368.14 177.14V184.32C368.133 184.709 368.167 185.098 368.24 185.48C368.291 185.771 368.435 186.038 368.65 186.24C368.897 186.432 369.207 186.525 369.52 186.5C369.681 186.516 369.843 186.498 369.997 186.446C370.15 186.394 370.291 186.311 370.41 186.2C370.594 185.967 370.708 185.686 370.74 185.39C370.784 185.035 370.808 184.678 370.81 184.32V182.78H373.93V184C373.944 184.83 373.812 185.656 373.54 186.44C373.291 187.136 372.815 187.728 372.19 188.12C371.372 188.585 370.439 188.807 369.5 188.76Z" fill="#407BFF"/>
<path d="M377.38 188.55V175.15H374.94V172.75H383V175.15H380.6V188.55H377.38Z" fill="#407BFF"/>
<path d="M322.52 215.07C322.164 214.885 321.829 214.664 321.52 214.41C321.112 214.106 320.727 213.772 320.37 213.41C319.997 213.037 319.662 212.629 319.37 212.19H319.2H319C318.042 212.24 317.09 212.021 316.25 211.56C315.576 211.151 315.064 210.523 314.8 209.78C314.483 208.888 314.334 207.946 314.36 207V201.11C314.334 200.167 314.483 199.228 314.8 198.34C315.061 197.604 315.575 196.984 316.25 196.59C317.096 196.147 318.047 195.943 319 196C319.965 195.954 320.925 196.168 321.78 196.62C322.455 197.016 322.971 197.635 323.24 198.37C323.552 199.256 323.702 200.191 323.68 201.13V207C323.684 207.672 323.613 208.343 323.47 209C323.354 209.563 323.126 210.097 322.8 210.57C322.471 211.001 322.042 211.344 321.55 211.57L322.08 212.12C322.253 212.297 322.437 212.464 322.63 212.62C322.79 212.767 322.964 212.897 323.15 213.01L322.52 215.07ZM319 209.85C319.332 209.875 319.662 209.771 319.92 209.56C320.123 209.352 320.259 209.087 320.31 208.8C320.37 208.47 320.401 208.135 320.4 207.8V200.33C320.401 199.995 320.371 199.66 320.31 199.33C320.257 199.044 320.121 198.78 319.92 198.57C319.658 198.367 319.33 198.267 319 198.29C318.675 198.268 318.355 198.368 318.1 198.57C317.898 198.778 317.765 199.044 317.72 199.33C317.658 199.66 317.628 199.995 317.63 200.33V207.8C317.629 208.135 317.659 208.47 317.72 208.8C317.763 209.087 317.896 209.353 318.1 209.56C318.351 209.77 318.674 209.874 319 209.85Z" fill="#407BFF"/>
<path d="M330.3 212.17C329.33 212.223 328.365 212.009 327.51 211.55C326.85 211.145 326.357 210.517 326.12 209.78C325.83 208.869 325.695 207.916 325.72 206.96V196.16H328.9V207.41C328.901 207.795 328.928 208.179 328.98 208.56C329.022 208.897 329.157 209.215 329.37 209.48C329.49 209.603 329.635 209.697 329.796 209.758C329.957 209.818 330.128 209.843 330.3 209.83C330.474 209.845 330.649 209.821 330.813 209.76C330.977 209.7 331.126 209.604 331.25 209.48C331.459 209.214 331.59 208.896 331.63 208.56C331.678 208.179 331.702 207.795 331.7 207.41V196.16H334.88V207C334.904 207.956 334.769 208.909 334.48 209.82C334.243 210.557 333.75 211.185 333.09 211.59C332.23 212.035 331.265 212.236 330.3 212.17Z" fill="#407BFF"/>
<path d="M336.23 212L339.29 196.21H342.86L345.86 212H342.86L342.29 208.53H339.8L339.19 212H336.23ZM340.15 206.56H342L341 200.18L340.15 206.56Z" fill="#407BFF"/>
<path d="M347.39 212V196.16H350.6V209.77H354.31V212H347.39Z" fill="#407BFF"/>
<path d="M355.75 212V196.16H359V212H355.75Z" fill="#407BFF"/>
<path d="M362.85 212V198.56H360.41V196.16H368.49V198.56H366.09V212H362.85Z" fill="#407BFF"/>
<path d="M372 212V205.74L368.92 196.21H371.92L373.62 201.76L375.2 196.21H378.12L375.12 205.74V212H372Z" fill="#407BFF"/>
<path d="M322.67 157.56L323.75 160.87H327.22L324.41 162.91L325.48 166.21L322.67 164.17L319.86 166.21L320.93 162.91L318.12 160.87H321.6L322.67 157.56Z" fill="#407BFF"/>
<path d="M334.84 157.56L335.91 160.87H339.39L336.57 162.91L337.65 166.21L334.84 164.17L332.03 166.21L333.1 162.91L330.29 160.87H333.76L334.84 157.56Z" fill="#407BFF"/>
<path d="M347 157.56L348.08 160.87H351.55L348.74 162.91L349.81 166.21L347 164.17L344.19 166.21L345.27 162.91L342.45 160.87H345.93L347 157.56Z" fill="#407BFF"/>
<path d="M359.17 157.56L360.24 160.87H363.72L360.91 162.91L361.98 166.21L359.17 164.17L356.36 166.21L357.43 162.91L354.62 160.87H358.1L359.17 157.56Z" fill="#407BFF"/>
<path d="M371.34 157.56L372.41 160.87H375.88L373.07 162.91L374.15 166.21L371.34 164.17L368.52 166.21L369.6 162.91L366.79 160.87H370.26L371.34 157.56Z" fill="#407BFF"/>
</svg>
